<?xml version="1.0" encoding="UTF-8"?>
<svg xmlns="http://www.w3.org/2000/svg" viewBox="180 55 240 190">
<defs><style>.cls-1{fill:#020142;}</style></defs>
<g><path class="cls-1" d="M411.24,150.52c-1.17-1.17-3.07-1.17-4.24,0l-43.46,43.46c-.17,.17-.31,.37-.44,.57-.13,.09-.26,.19-.37,.31-5.54,5.54-14.56,5.54-20.1,0-2.68-2.69-4.16-6.25-4.16-10.05s1.48-7.37,4.16-10.05c.12-.12,.21-.24,.3-.37,.2-.12,.4-.26,.57-.44l46.17-46.17c1.17-1.17,1.17-3.07,0-4.24-1.17-1.17-3.07-1.17-4.24,0l-46.17,46.17c-.12,.12-.21,.24-.3,.37-.2,.12-.4,.26-.57,.44-7.88,7.88-7.88,20.71,0,28.59,3.94,3.94,9.12,5.91,14.29,5.91s10.35-1.97,14.29-5.91c.17-.17,.31-.37,.44-.57,.13-.09,.26-.19,.37-.31l43.46-43.46c1.17-1.17,1.17-3.07,0-4.24Z"/><path class="cls-1" d="M404.83,177.64l-29.66,29.66c-12.4,12.4-32.58,12.4-44.99,0-12.4-12.4-12.4-32.58,0-44.98h0l19.09-19.09c1.17-1.17,1.17-3.07,0-4.24-1.17-1.17-3.07-1.17-4.24,0l-19.09,19.09h0c-14.74,14.75-14.74,38.73,0,53.47,7.37,7.37,17.05,11.06,26.73,11.06s19.36-3.69,26.74-11.06l29.66-29.66c1.17-1.17,1.17-3.07,0-4.24-1.17-1.17-3.07-1.17-4.24,0Z"/><path class="cls-1" d="M350.55,186.92c.59,.59,1.35,.88,2.12,.88s1.54-.29,2.12-.88l51.93-51.93c1.17-1.17,1.17-3.07,0-4.24-1.17-1.17-3.07-1.17-4.24,0l-51.93,51.93c-1.17,1.17-1.17,3.07,0,4.24Z"/><path class="cls-1" d="M269.34,158.07h0l-19.09-19.09c-1.17-1.17-3.07-1.17-4.24,0s-1.17,3.07,0,4.24l19.09,19.09h0c12.4,12.4,12.4,32.58,0,44.98-12.4,12.4-32.58,12.4-44.98,0h0l-29.66-29.66c-1.17-1.17-3.07-1.17-4.24,0-1.17,1.17-1.17,3.07,0,4.24l29.66,29.66c7.37,7.37,17.05,11.06,26.73,11.06s19.36-3.69,26.73-11.06c14.74-14.74,14.74-38.72,0-53.47Z"/><path class="cls-1" d="M227.87,198.53c.12,.2,.26,.4,.44,.57,3.94,3.94,9.12,5.91,14.29,5.91s10.35-1.97,14.29-5.91c7.88-7.88,7.88-20.71,0-28.59-.17-.17-.37-.31-.57-.44-.09-.13-.19-.26-.3-.37l-46.17-46.17c-1.17-1.17-3.07-1.17-4.24,0-1.17,1.17-1.17,3.07,0,4.24l46.17,46.17c.17,.17,.37,.31,.57,.44,.09,.13,.19,.26,.3,.37,2.68,2.69,4.16,6.25,4.16,10.05s-1.48,7.37-4.16,10.05c-2.69,2.68-6.25,4.16-10.05,4.16s-7.37-1.48-10.05-4.16c-.12-.12-.24-.21-.37-.31-.12-.2-.26-.4-.44-.57l-43.46-43.46c-1.17-1.17-3.07-1.17-4.24,0-1.17,1.17-1.17,3.07,0,4.24l43.46,43.46c.12,.12,.24,.21,.37,.31Z"/><path class="cls-1" d="M240.48,186.92c.59,.59,1.35,.88,2.12,.88s1.54-.29,2.12-.88c1.17-1.17,1.17-3.07,0-4.24l-51.93-51.93c-1.17-1.17-3.07-1.17-4.24,0-1.17,1.17-1.17,3.07,0,4.24l51.93,51.93Z"/><path class="cls-1" d="M332.45,230.5h-31.81v-75.78c19.45-1.54,34.81-17.84,34.81-37.68v-17.55c.02-.15,.05-.3,.05-.46,0-1.66-1.34-3-3-3h-14.69v-14.21c.02-.15,.05-.3,.05-.46,0-11.15-9.07-20.21-20.21-20.21s-20.21,9.07-20.21,20.21c0,.16,.02,.31,.05,.46v14.21h-14.64c-1.66,0-3,1.34-3,3v18.01c0,19.84,15.36,36.14,34.81,37.68v75.78h-31.81c-1.66,0-3,1.34-3,3s1.34,3,3,3h69.62c1.66,0,3-1.34,3-3s-1.34-3-3-3Zm-34.81-163.34c7.74,0,14.04,6.21,14.2,13.91-.01,.1-.03,.2-.03,.3v34.48c0,.25,.04,.48,.09,.71-.03,.16-.05,.32-.05,.48,0,7.84-6.38,14.21-14.21,14.21s-14.21-6.38-14.21-14.21c0-.16-.02-.32-.05-.48,.06-.23,.09-.47,.09-.71v-34.48c0-.1-.02-.2-.03-.3,.16-7.7,6.46-13.91,14.2-13.91Zm-31.81,49.88v-15.01h11.64v13.81c0,.16,.02,.32,.05,.48-.06,.23-.09,.47-.09,.71,0,11.15,9.07,20.21,20.21,20.21s20.21-9.07,20.21-20.21c0-.25-.04-.48-.09-.71,.03-.16,.05-.32,.05-.48v-13.81h11.64v15.01c0,17.54-14.27,31.81-31.81,31.81s-31.81-14.27-31.81-31.81Z"/></g>
</svg>
