<?xml version="1.0" encoding="UTF-8"?>
<svg xmlns="http://www.w3.org/2000/svg" viewBox="34 27 622 186">
<defs><style>.cls-1{fill:#000000;}</style></defs>
<g transform="translate(-80.5, 13.4) scale(0.72)">
<path class="cls-1" d="M411.24,150.52c-1.17-1.17-3.07-1.17-4.24,0l-43.46,43.46c-.17,.17-.31,.37-.44,.57-.13,.09-.26,.19-.37,.31-5.54,5.54-14.56,5.54-20.1,0-2.68-2.69-4.16-6.25-4.16-10.05s1.48-7.37,4.16-10.05c.12-.12,.21-.24,.3-.37,.2-.12,.4-.26,.57-.44l46.17-46.17c1.17-1.17,1.17-3.07,0-4.24-1.17-1.17-3.07-1.17-4.24,0l-46.17,46.17c-.12,.12-.21,.24-.3,.37-.2,.12-.4,.26-.57,.44-7.88,7.88-7.88,20.71,0,28.59,3.94,3.94,9.12,5.91,14.29,5.91s10.35-1.97,14.29-5.91c.17-.17,.31-.37,.44-.57,.13-.09,.26-.19,.37-.31l43.46-43.46c1.17-1.17,1.17-3.07,0-4.24Z"/><path class="cls-1" d="M404.83,177.64l-29.66,29.66c-12.4,12.4-32.58,12.4-44.99,0-12.4-12.4-12.4-32.58,0-44.98h0l19.09-19.09c1.17-1.17,1.17-3.07,0-4.24-1.17-1.17-3.07-1.17-4.24,0l-19.09,19.09h0c-14.74,14.75-14.74,38.73,0,53.47,7.37,7.37,17.05,11.06,26.73,11.06s19.36-3.69,26.74-11.06l29.66-29.66c1.17-1.17,1.17-3.07,0-4.24-1.17-1.17-3.07-1.17-4.24,0Z"/><path class="cls-1" d="M350.55,186.92c.59,.59,1.35,.88,2.12,.88s1.54-.29,2.12-.88l51.93-51.93c1.17-1.17,1.17-3.07,0-4.24-1.17-1.17-3.07-1.17-4.24,0l-51.93,51.93c-1.17,1.17-1.17,3.07,0,4.24Z"/><path class="cls-1" d="M269.34,158.07h0l-19.09-19.09c-1.17-1.17-3.07-1.17-4.24,0s-1.17,3.07,0,4.24l19.09,19.09h0c12.4,12.4,12.4,32.58,0,44.98-12.4,12.4-32.58,12.4-44.98,0h0l-29.66-29.66c-1.17-1.17-3.07-1.17-4.24,0-1.17,1.17-1.17,3.07,0,4.24l29.66,29.66c7.37,7.37,17.05,11.06,26.73,11.06s19.36-3.69,26.73-11.06c14.74-14.74,14.74-38.72,0-53.47Z"/><path class="cls-1" d="M227.87,198.53c.12,.2,.26,.4,.44,.57,3.94,3.94,9.12,5.91,14.29,5.91s10.35-1.97,14.29-5.91c7.88-7.88,7.88-20.71,0-28.59-.17-.17-.37-.31-.57-.44-.09-.13-.19-.26-.3-.37l-46.17-46.17c-1.17-1.17-3.07-1.17-4.24,0-1.17,1.17-1.17,3.07,0,4.24l46.17,46.17c.17,.17,.37,.31,.57,.44,.09,.13,.19,.26,.3,.37,2.68,2.69,4.16,6.25,4.16,10.05s-1.48,7.37-4.16,10.05c-2.69,2.68-6.25,4.16-10.05,4.16s-7.37-1.48-10.05-4.16c-.12-.12-.24-.21-.37-.31-.12-.2-.26-.4-.44-.57l-43.46-43.46c-1.17-1.17-3.07-1.17-4.24,0-1.17,1.17-1.17,3.07,0,4.24l43.46,43.46c.12,.12,.24,.21,.37,.31Z"/><path class="cls-1" d="M240.48,186.92c.59,.59,1.35,.88,2.12,.88s1.54-.29,2.12-.88c1.17-1.17,1.17-3.07,0-4.24l-51.93-51.93c-1.17-1.17-3.07-1.17-4.24,0-1.17,1.17-1.17,3.07,0,4.24l51.93,51.93Z"/><path class="cls-1" d="M332.45,230.5h-31.81v-75.78c19.45-1.54,34.81-17.84,34.81-37.68v-17.55c.02-.15,.05-.3,.05-.46,0-1.66-1.34-3-3-3h-14.69v-14.21c.02-.15,.05-.3,.05-.46,0-11.15-9.07-20.21-20.21-20.21s-20.21,9.07-20.21,20.21c0,.16,.02,.31,.05,.46v14.21h-14.64c-1.66,0-3,1.34-3,3v18.01c0,19.84,15.36,36.14,34.81,37.68v75.78h-31.81c-1.66,0-3,1.34-3,3s1.34,3,3,3h69.62c1.66,0,3-1.34,3-3s-1.34-3-3-3Zm-34.81-163.34c7.74,0,14.04,6.21,14.2,13.91-.01,.1-.03,.2-.03,.3v34.48c0,.25,.04,.48,.09,.71-.03,.16-.05,.32-.05,.48,0,7.84-6.38,14.21-14.21,14.21s-14.21-6.38-14.21-14.21c0-.16-.02-.32-.05-.48,.06-.23,.09-.47,.09-.71v-34.48c0-.1-.02-.2-.03-.3,.16-7.7,6.46-13.91,14.2-13.91Zm-31.81,49.88v-15.01h11.64v13.81c0,.16,.02,.32,.05,.48-.06,.23-.09,.47-.09,.71,0,11.15,9.07,20.21,20.21,20.21s20.21-9.07,20.21-20.21c0-.25-.04-.48-.09-.71,.03-.16,.05-.32,.05-.48v-13.81h11.64v15.01c0,17.54-14.27,31.81-31.81,31.81s-31.81-14.27-31.81-31.81Z"/>
</g>
<line x1="243.5" y1="45" x2="243.5" y2="195" stroke="#000000" stroke-width="1.5" stroke-linecap="round"/>
<g transform="translate(157.5, -216)">
<path class="cls-1" d="M122.16,318.47l.77,2.93h-7.53l.77-2.93v-42.26l-.77-3h15.83l3,3v21.13l-3,3h-8.37l-.7,.7v17.43Zm0-24.83l.7,.7h4.6l.7-.7v-13.67l-.7-.7h-4.6l-.7,.7v13.67Z"/><path class="cls-1" d="M166.23,321.4h-18.06l.77-3v-42.26l-.77-2.93h18.06l1.12,6.69-3.14-.7h-8.58l-.7,.7v13.67l.7,.7h2.37l3-.77v7.53l-3-.77h-2.37l-.7,.7v13.67l.7,.7h8.58l3.14-.7-1.12,6.76Z"/><path class="cls-1" d="M188.12,321.4h-7.53l.77-2.93v-42.26l-.77-3h15.83l3,3v21.13l-3,3,2.58,17.99,.98,3.07h-7.53l.56-2.86-2.58-17.64-.49-.56h-1.88l-.7,.7v17.43l.77,2.93Zm-.07-27.06h4.67l.7-.7v-13.67l-.7-.7h-4.67l-.7,.7v13.67l.7,.7Z"/><path class="cls-1" d="M215.04,276.14l-.77-2.93h18.06l1.12,6.69-3.14-.7h-8.58l-.7,.7v13.67l.7,.7h2.37l2.93-.77v7.53l-2.93-.77h-2.37l-.7,.7v17.43l.77,3h-7.53l.77-3v-42.26Z"/><path class="cls-1" d="M261.76,273.21l3,3v42.19l-3,3h-12.06l-3-3v-42.19l3-3h12.06Zm-3.07,6.76l-.7-.7h-4.6l-.7,.7v34.73l.7,.7h4.6l.7-.7v-34.73Z"/><path class="cls-1" d="M286.93,321.4h-7.53l.77-2.93v-42.26l-.77-3h15.83l3,3v21.13l-3,3,2.58,17.99,.98,3.07h-7.53l.56-2.86-2.58-17.64-.49-.56h-1.88l-.7,.7v17.43l.77,2.93Zm-.07-27.06h4.67l.7-.7v-13.67l-.7-.7h-4.67l-.7,.7v13.67l.7,.7Z"/><path class="cls-1" d="M335.4,290.79l-6.21,18.41h-3.07l-6.28-18.41v27.69l.77,2.93h-7.53l.77-2.93v-42.26l-.77-3h6.76l7.81,23.08,7.74-23.08h6.76l-.77,3v42.26l.77,2.93h-7.53l.77-2.93v-27.69Z"/><path class="cls-1" d="M377.73,317.22l1.46,4.18h-7.53l.49-2.02-1.6-9.21-.84-.84h-5.23l-.84,.77-1.53,9.27,.49,2.02h-7.53l1.39-4.11,7.11-41.35-.63-2.72h8.23l-.63,2.72,7.18,41.28Zm-12.9-14.44l.63,.49h3.21l.63-.35-1.67-9.9-.56-5.37-.56,5.37-1.67,9.76Z"/><path class="cls-1" d="M398.86,318.47l.77,2.93h-7.53l.77-2.93v-42.26l-.77-3h6.76l6.69,25.38,1.05,4.25-.28-4.25v-22.39l-.77-3h7.53l-.77,3v42.26l.77,2.93h-6.76l-6.69-25.38-1.05-4.25,.28,4.25v22.46Z"/><path class="cls-1" d="M430.72,321.4l-3-3v-42.19l3-3h12.06l3,3v6.07l.77,2.93h-7.53l.77-2.93v-2.37l-.7-.7h-4.67l-.7,.7v34.73l.7,.7h4.67l.7-.7v-2.37l-.77-2.93h7.53l-.77,2.93v6.14l-3,3h-12.06Z"/><path class="cls-1" d="M478.77,321.4h-18.06l.77-3v-42.26l-.77-2.93h18.06l1.12,6.69-3.14-.7h-8.58l-.7,.7v13.67l.7,.7h2.37l3-.77v7.53l-3-.77h-2.37l-.7,.7v13.67l.7,.7h8.58l3.14-.7-1.12,6.76Z"/>
<path class="cls-1" d="M121.77,396.98l.77,2.93h-7.52l.77-2.93v-42.21l-.77-3h7.52l-.77,3v42.21Z"/><path class="cls-1" d="M143.92,396.98l.77,2.93h-7.52l.77-2.93v-42.21l-.77-3h6.76l6.69,25.35,1.04,4.25-.28-4.25v-22.36l-.77-3h7.52l-.77,3v42.21l.77,2.93h-6.76l-6.69-25.35-1.04-4.25,.28,4.25v22.43Z"/><path class="cls-1" d="M191.63,351.78l1.11,6.76-3.13-.7h-3.9l-.7,.7v38.45l.77,2.93h-7.52l.77-2.93v-38.45l-.7-.7h-3.97l-3.13,.7,1.11-6.76h19.29Z"/><path class="cls-1" d="M223.88,399.91h-18.04l.77-3v-42.21l-.77-2.93h18.04l1.11,6.69-3.13-.7h-8.57l-.7,.7v13.65l.7,.7h2.37l3-.77v7.52l-3-.77h-2.37l-.7,.7v13.65l.7,.7h8.57l3.13-.7-1.11,6.76Z"/><path class="cls-1" d="M245.75,399.91h-7.52l.77-2.93v-42.21l-.77-3h15.81l3,3v21.11l-3,3,2.58,17.97,.98,3.07h-7.52l.56-2.86-2.58-17.62-.49-.56h-1.88l-.7,.7v17.41l.77,2.93Zm-.07-27.03h4.67l.7-.7v-13.65l-.7-.7h-4.67l-.7,.7v13.65l.7,.7Z"/><path class="cls-1" d="M278.62,396.98l.77,2.93h-7.52l.77-2.93v-42.21l-.77-3h15.81l3,3v21.11l-3,3h-8.36l-.7,.7v17.41Zm0-24.8l.7,.7h4.6l.7-.7v-13.65l-.7-.7h-4.6l-.7,.7v13.65Z"/><path class="cls-1" d="M312.13,399.91h-7.52l.77-2.93v-42.21l-.77-3h15.81l3,3v21.11l-3,3,2.58,17.97,.98,3.07h-7.52l.56-2.86-2.58-17.62-.49-.56h-1.88l-.7,.7v17.41l.77,2.93Zm-.07-27.03h4.67l.7-.7v-13.65l-.7-.7h-4.67l-.7,.7v13.65l.7,.7Z"/><path class="cls-1" d="M356.29,399.91h-18.04l.77-3v-42.21l-.77-2.93h18.04l1.11,6.69-3.13-.7h-8.57l-.7,.7v13.65l.7,.7h2.37l3-.77v7.52l-3-.77h-2.37l-.7,.7v13.65l.7,.7h8.57l3.13-.7-1.11,6.76Z"/><path class="cls-1" d="M389.51,351.78l1.11,6.76-3.13-.7h-3.9l-.7,.7v38.45l.77,2.93h-7.52l.77-2.93v-38.45l-.7-.7h-3.97l-3.13,.7,1.11-6.76h19.29Z"/><path class="cls-1" d="M410.48,396.98l.77,2.93h-7.52l.77-2.93v-42.21l-.77-3h7.52l-.77,3v42.21Z"/><path class="cls-1" d="M432.63,396.98l.77,2.93h-7.52l.77-2.93v-42.21l-.77-3h6.76l6.69,25.35,1.04,4.25-.28-4.25v-22.36l-.77-3h7.52l-.77,3v42.21l.77,2.93h-6.76l-6.69-25.35-1.04-4.25,.28,4.25v22.43Z"/><path class="cls-1" d="M464.46,399.91l-3-3v-42.14l3-3h12.05l3,3v6.06l.77,2.93h-7.52l.77-2.93v-2.37l-.7-.7h-4.6l-.7,.7v34.69l.7,.7h4.6l.7-.7v-11.28h-1.67l-1.32-6.06h9.75l-.77,3v18.11l-3,3h-12.05Z"/>
</g>
</svg>