<?xml version="1.0" encoding="UTF-8" standalone="no"?>
<!-- Created with Inkscape (http://www.inkscape.org/) -->

<svg
   xmlns:dc="http://purl.org/dc/elements/1.1/"
   xmlns:cc="http://creativecommons.org/ns#"
   xmlns:rdf="http://www.w3.org/1999/02/22-rdf-syntax-ns#"
   xmlns:svg="http://www.w3.org/2000/svg"
   xmlns="http://www.w3.org/2000/svg"
   xmlns:sodipodi="http://sodipodi.sourceforge.net/DTD/sodipodi-0.dtd"
   xmlns:inkscape="http://www.inkscape.org/namespaces/inkscape"
   width="81mm"
   height="46mm"
   viewBox="0 0 81 46"
   version="1.1"
   data-id="svg8"
   inkscape:version="0.92.3 (2405546, 2018-03-11)"
   sodipodi:docname="Logo_Wembley_Stadium_2010.svg">
  <defs
     id="defs2">
    <clipPath
       id="clipPath833"
       clipPathUnits="userSpaceOnUse">
      <path
         inkscape:connector-curvature="0"
         id="path831"
         d="m 263.188,877.898 h 294.605 v 193.598 H 263.188 Z" />
    </clipPath>
    <clipPath
       id="clipPath861"
       clipPathUnits="userSpaceOnUse">
      <path
         inkscape:connector-curvature="0"
         id="path859"
         d="M 0,0 H 819.213 V 1077.165 H 0 Z" />
    </clipPath>
    <clipPath
       id="clipPath909"
       clipPathUnits="userSpaceOnUse">
      <path
         inkscape:connector-curvature="0"
         id="path907"
         d="M 0,250.492 H 408.019 V 526.434 H 0 Z" />
    </clipPath>
    <clipPath
       id="clipPath921"
       clipPathUnits="userSpaceOnUse">
      <path
         inkscape:connector-curvature="0"
         id="path919"
         d="M 0,530.279 H 819.212 V 874.246 H 0 Z" />
    </clipPath>
    <clipPath
       id="clipPath935"
       clipPathUnits="userSpaceOnUse">
      <path
         inkscape:connector-curvature="0"
         id="path933"
         d="M 411.988,250.492 H 819.213 V 526.435 H 411.988 Z" />
    </clipPath>
  </defs>
  <sodipodi:namedview
     id="base"
     pagecolor="#ffffff"
     bordercolor="#666666"
     borderopacity="1.0"
     inkscape:pageopacity="0.0"
     inkscape:pageshadow="2"
     inkscape:zoom="1.979899"
     inkscape:cx="248.11827"
     inkscape:cy="150.78707"
     inkscape:document-units="mm"
     inkscape:current-layer="layer1"
     showgrid="false"
     inkscape:window-width="1920"
     inkscape:window-height="1057"
     inkscape:window-x="-8"
     inkscape:window-y="-8"
     inkscape:window-maximized="1" />
  <metadata
     id="metadata5">
    <rdf:RDF>
      <cc:Work
         rdf:about="">
        <dc:format>image/svg+xml</dc:format>
        <dc:type
           rdf:resource="http://purl.org/dc/dcmitype/StillImage" />
        <dc:title></dc:title>
      </cc:Work>
    </rdf:RDF>
  </metadata>
  <g
     inkscape:label="Calque 1"
     inkscape:groupmode="layer"
     id="layer1"
     transform="translate(0,-251)">
    <g
       id="g827"
       transform="matrix(0.35277777,0,0,-0.35277777,-104.6577,617.92266)">
      <g
         id="g829"
         clip-path="url(#clipPath833)">
        <g
           id="g835"
           transform="translate(451.7745,992.163)">
          <path
             d="m 0,0 c 0.014,-0.488 -0.257,-1.052 -1.674,-1.918 0,0 -1.071,-0.644 1.799,0.412 2.437,1.029 5.346,2.756 4,4.765 C 2.593,4.933 -0.263,5.896 -2.357,6.458 -3.587,6.788 -4.843,7.042 -6.11,7.23 -6.322,7.262 -7.77,7.478 -8.802,7.59 -9.28,5.996 -9.953,4.435 -10.446,3.388 -4.913,2.935 -0.364,2.047 0,0 m -16.991,8.362 c -0.251,-1.539 -0.599,-3.246 -1.067,-5.065 -10.47,0.326 -36.937,-1.031 -37.334,-1.111 -0.518,-0.104 -11.221,2.6 -11.221,2.6 4.46,0.62 36.568,4.391 49.622,3.576"
             style="fill:#00abad;fill-opacity:1;fill-rule:nonzero;stroke:none"
             id="path837"
             inkscape:connector-curvature="0" />
        </g>
        <g
           id="g839"
           transform="translate(435.3352,1006.1186)">
          <path
             d="m 0,0 c 0.18,14.099 -7.23,23.805 -23.641,20.274 -21.294,-4.583 -48.798,-24.158 -53.112,-27.299 10.263,-2.227 21.416,-5.022 25.294,-6.028 0,0 27.146,-5.944 33.79,-6.872 27.749,-5.227 38.677,3.313 38.677,3.313 -0.531,-0.989 -1.311,-1.864 -2.148,-2.576 -3.249,-2.771 -8.21,-4.369 -12.346,-4.957 -4.956,-0.709 -9.983,-0.642 -14.965,-0.285 -3.752,0.269 -7.494,0.706 -11.208,1.31 -18.759,3.059 -49.537,10.173 -75.36,13.997 -25.39,3.759 -25.348,-4.676 -25.348,-4.676 -2.389,1.663 -5.921,8.726 9.663,10.597 7.536,0.901 20.49,-0.843 31.485,-3.082 12.984,9.979 23.204,16.329 23.204,16.329 3.946,2.492 42.083,28.134 55.751,13.763 12.891,-13.558 -1.56,-42.907 -1.56,-42.907 -0.626,0.003 -2.598,0.104 -2.598,0.104 C -1.065,-11.039 -0.046,-3.583 0,0"
             style="fill:#ffffff;fill-opacity:1;fill-rule:nonzero;stroke:none"
             id="path841"
             inkscape:connector-curvature="0" />
        </g>
        <g
           id="g843"
           transform="translate(462.1477,928.2719)">
          <path
             d="M 0,0 C -0.031,-0.069 -0.069,-0.131 -0.115,-0.184 -0.069,-0.238 -0.031,-0.298 0,-0.363 0.031,-0.429 0.046,-0.5 0.046,-0.576 c 0,-0.177 -0.066,-0.323 -0.196,-0.438 0.13,-0.115 0.196,-0.262 0.196,-0.438 0,-0.162 -0.066,-0.308 -0.196,-0.439 0.13,-0.115 0.196,-0.257 0.196,-0.426 0,-0.177 -0.066,-0.323 -0.196,-0.439 0.13,-0.115 0.196,-0.261 0.196,-0.438 0,-0.161 -0.055,-0.297 -0.167,-0.409 -0.112,-0.111 -0.248,-0.167 -0.409,-0.167 -0.154,0 -0.289,0.056 -0.404,0.167 -0.115,0.112 -0.173,0.248 -0.173,0.409 0,0.177 0.065,0.323 0.196,0.438 -0.131,0.116 -0.196,0.262 -0.196,0.439 0,0.177 0.065,0.319 0.196,0.426 -0.131,0.116 -0.196,0.261 -0.196,0.439 0,0.176 0.065,0.323 0.196,0.438 -0.131,0.115 -0.196,0.261 -0.196,0.438 0,0.153 0.054,0.283 0.161,0.392 -0.107,0.107 -0.161,0.242 -0.161,0.403 v 0.012 c -0.13,0.023 -0.242,0.084 -0.334,0.184 -0.093,0.1 -0.139,0.223 -0.139,0.369 -0.13,0.023 -0.24,0.087 -0.328,0.19 -0.089,0.104 -0.133,0.229 -0.133,0.375 V 1.36 C -2.194,1.368 -2.323,1.43 -2.427,1.545 -2.531,1.66 -2.583,1.794 -2.583,1.948 v 0.035 c -0.153,0.016 -0.28,0.077 -0.38,0.184 -0.1,0.108 -0.15,0.239 -0.15,0.393 V 2.594 C -3.267,2.61 -3.394,2.671 -3.494,2.779 -3.593,2.886 -3.643,3.017 -3.643,3.171 v 0.034 c -0.154,0.008 -0.283,0.069 -0.386,0.184 -0.104,0.116 -0.156,0.25 -0.156,0.404 0,0.154 0.057,0.288 0.173,0.404 0.115,0.115 0.249,0.172 0.403,0.172 0.162,0 0.3,-0.057 0.415,-0.172 0.115,-0.116 0.173,-0.25 0.173,-0.404 V 3.747 C -2.875,3.732 -2.75,3.67 -2.646,3.562 -2.542,3.455 -2.49,3.324 -2.49,3.171 V 3.137 C -2.337,3.121 -2.209,3.059 -2.11,2.952 -2.01,2.844 -1.96,2.714 -1.96,2.56 V 2.525 c 0.154,-0.015 0.28,-0.079 0.38,-0.19 0.1,-0.112 0.15,-0.241 0.15,-0.387 V 1.902 c 0.139,-0.015 0.258,-0.077 0.358,-0.184 0.1,-0.108 0.15,-0.23 0.15,-0.369 V 1.338 c 0.085,-0.016 0.161,-0.049 0.23,-0.098 0.07,-0.051 0.123,-0.114 0.162,-0.19 0.038,0.076 0.093,0.139 0.167,0.19 0.073,0.049 0.152,0.082 0.236,0.098 v 0.011 c 0,0.139 0.048,0.261 0.144,0.369 0.096,0.107 0.213,0.169 0.352,0.184 v 0.046 c 0,0.146 0.052,0.275 0.155,0.387 C 0.628,2.446 0.753,2.51 0.9,2.525 V 2.56 c 0,0.154 0.051,0.284 0.155,0.392 0.104,0.107 0.232,0.169 0.386,0.185 v 0.034 c 0,0.153 0.05,0.284 0.15,0.391 0.1,0.108 0.227,0.17 0.381,0.185 v 0.046 c 0,0.154 0.056,0.288 0.166,0.404 0.112,0.115 0.249,0.172 0.41,0.172 0.162,0 0.298,-0.057 0.409,-0.172 C 3.068,4.081 3.124,3.947 3.124,3.793 3.124,3.639 3.074,3.507 2.974,3.396 2.875,3.284 2.747,3.22 2.595,3.205 V 3.171 C 2.595,3.017 2.544,2.886 2.444,2.779 2.344,2.671 2.217,2.61 2.064,2.594 V 2.56 C 2.064,2.406 2.01,2.273 1.902,2.162 1.794,2.051 1.668,1.991 1.522,1.983 V 1.948 C 1.522,1.794 1.472,1.663 1.372,1.55 1.272,1.439 1.145,1.376 0.992,1.36 V 1.349 C 0.992,1.203 0.945,1.078 0.853,0.974 0.761,0.871 0.649,0.807 0.519,0.784 0.519,0.638 0.473,0.515 0.38,0.415 0.288,0.315 0.177,0.254 0.046,0.231 V 0.219 C 0.046,0.142 0.031,0.069 0,0 m -7.966,-2.617 c 0.145,0 0.284,-0.057 0.415,-0.173 0.115,0.116 0.249,0.173 0.403,0.173 0.077,0 0.154,-0.019 0.231,-0.057 0.099,0.184 0.261,0.283 0.484,0.299 0,0.092 0.023,0.181 0.07,0.266 0.046,0.084 0.107,0.153 0.184,0.207 -0.069,0.092 -0.104,0.203 -0.104,0.334 0,0.123 0.038,0.242 0.115,0.357 -0.084,0.047 -0.152,0.114 -0.202,0.202 -0.05,0.088 -0.075,0.186 -0.075,0.295 v 0.068 c -0.122,0.008 -0.229,0.051 -0.317,0.127 -0.088,0.077 -0.148,0.174 -0.178,0.289 -0.077,-0.039 -0.158,-0.058 -0.243,-0.058 -0.161,0 -0.299,0.058 -0.414,0.173 -0.116,-0.1 -0.246,-0.15 -0.392,-0.15 -0.139,0 -0.266,0.05 -0.381,0.15 -0.108,-0.115 -0.243,-0.173 -0.404,-0.173 -0.161,0 -0.299,0.058 -0.414,0.173 -0.116,-0.115 -0.251,-0.173 -0.404,-0.173 -0.162,0 -0.296,0.053 -0.403,0.161 -0.016,0 -0.024,-0.008 -0.024,-0.023 0.131,-0.115 0.196,-0.258 0.196,-0.426 0,-0.177 -0.069,-0.323 -0.207,-0.438 0.138,-0.115 0.207,-0.262 0.207,-0.438 0,-0.162 -0.065,-0.308 -0.196,-0.439 0.131,-0.115 0.196,-0.257 0.196,-0.426 0,-0.177 -0.069,-0.327 -0.207,-0.45 0.015,0 0.023,-0.008 0.023,-0.023 0.115,0.116 0.253,0.173 0.415,0.173 0.153,0 0.288,-0.057 0.404,-0.173 0.115,0.116 0.253,0.173 0.414,0.173 0.154,0 0.289,-0.057 0.404,-0.173 0.115,0.116 0.25,0.173 0.404,0.173 m -1.626,3.493 c 0.153,0 0.288,-0.057 0.404,-0.173 0.115,0.116 0.253,0.173 0.414,0.173 0.161,0 0.296,-0.061 0.404,-0.184 0.093,0.108 0.219,0.161 0.381,0.161 0.076,0 0.147,-0.016 0.213,-0.046 0.065,-0.031 0.125,-0.069 0.179,-0.115 0.115,0.115 0.253,0.173 0.414,0.173 0.031,0 0.077,-0.008 0.139,-0.023 0.061,0.208 0.196,0.334 0.404,0.381 V 1.28 c 0,0.1 0.022,0.191 0.069,0.277 0.046,0.084 0.107,0.153 0.184,0.207 -0.039,0.093 -0.058,0.18 -0.058,0.265 0,0.138 0.043,0.258 0.128,0.358 -0.147,0.108 -0.22,0.261 -0.22,0.461 V 2.894 C -6.775,2.909 -6.944,3.017 -7.044,3.217 -7.075,3.209 -7.104,3.203 -7.13,3.199 -7.158,3.196 -7.19,3.194 -7.229,3.194 c -0.153,0 -0.28,0.046 -0.38,0.138 -0.1,-0.084 -0.219,-0.127 -0.357,-0.127 -0.169,0 -0.308,0.054 -0.415,0.162 -0.108,-0.108 -0.239,-0.162 -0.393,-0.162 -0.169,0 -0.307,0.054 -0.414,0.162 -0.108,-0.108 -0.243,-0.162 -0.404,-0.162 -0.169,0 -0.307,0.054 -0.415,0.162 0,-0.008 -0.002,-0.012 -0.006,-0.012 -0.004,0 -0.006,-0.004 -0.006,-0.011 0.131,-0.116 0.196,-0.258 0.196,-0.427 0,-0.177 -0.069,-0.327 -0.207,-0.45 0.138,-0.115 0.207,-0.257 0.207,-0.426 0,-0.177 -0.069,-0.323 -0.207,-0.438 0.138,-0.115 0.207,-0.262 0.207,-0.438 0,-0.178 -0.069,-0.323 -0.207,-0.439 l 0.023,-0.023 c 0.115,0.116 0.253,0.173 0.415,0.173 m 3.182,-4.404 c -0.092,0 -0.173,0.015 -0.242,0.047 -0.046,-0.086 -0.113,-0.154 -0.202,-0.208 -0.088,-0.054 -0.186,-0.081 -0.294,-0.081 -0.169,0 -0.307,0.053 -0.415,0.161 -0.108,-0.108 -0.242,-0.161 -0.403,-0.161 -0.162,0 -0.297,0.053 -0.404,0.161 -0.108,-0.108 -0.243,-0.161 -0.404,-0.161 -0.169,0 -0.307,0.053 -0.414,0.161 -0.108,-0.108 -0.243,-0.161 -0.404,-0.161 -0.169,0 -0.307,0.053 -0.415,0.161 -0.108,-0.108 -0.238,-0.161 -0.392,-0.161 -0.162,0 -0.298,0.056 -0.409,0.167 -0.112,0.112 -0.167,0.248 -0.167,0.409 0,0.185 0.065,0.331 0.195,0.438 -0.13,0.108 -0.195,0.254 -0.195,0.439 0,0.177 0.065,0.319 0.195,0.426 -0.13,0.116 -0.195,0.261 -0.195,0.439 0,0.184 0.065,0.33 0.195,0.438 -0.13,0.107 -0.195,0.253 -0.195,0.438 0,0.176 0.061,0.318 0.184,0.426 -0.131,0.13 -0.196,0.277 -0.196,0.438 0,0.177 0.065,0.323 0.196,0.438 -0.123,0.108 -0.184,0.254 -0.184,0.439 0,0.184 0.065,0.33 0.195,0.438 -0.13,0.107 -0.195,0.254 -0.195,0.438 0,0.176 0.065,0.319 0.195,0.426 -0.13,0.116 -0.195,0.266 -0.195,0.45 0,0.177 0.065,0.319 0.195,0.427 -0.13,0.107 -0.195,0.253 -0.195,0.437 0,0.162 0.055,0.299 0.167,0.41 0.111,0.111 0.247,0.167 0.409,0.167 0.146,0 0.276,-0.057 0.392,-0.173 0.115,0.116 0.253,0.173 0.415,0.173 0.153,0 0.288,-0.057 0.404,-0.173 0.115,0.116 0.253,0.173 0.414,0.173 0.146,0 0.277,-0.057 0.393,-0.173 0.115,0.116 0.253,0.173 0.415,0.173 0.138,0 0.261,-0.046 0.369,-0.138 0.107,0.084 0.23,0.127 0.368,0.127 0.116,0 0.219,-0.031 0.312,-0.093 0.092,-0.061 0.161,-0.142 0.207,-0.242 0.054,0.023 0.12,0.034 0.196,0.034 0.154,0 0.288,-0.055 0.404,-0.166 0.116,-0.112 0.173,-0.248 0.173,-0.409 V 3.424 C -5.784,3.417 -5.653,3.357 -5.545,3.246 -5.438,3.134 -5.384,3.001 -5.384,2.848 -5.384,2.71 -5.426,2.586 -5.511,2.479 -5.449,2.425 -5.397,2.358 -5.355,2.277 -5.313,2.196 -5.292,2.114 -5.292,2.029 -5.292,1.822 -5.38,1.66 -5.556,1.545 -5.511,1.46 -5.488,1.373 -5.488,1.28 -5.488,1.126 -5.536,0.996 -5.632,0.887 -5.728,0.78 -5.845,0.715 -5.983,0.692 c 0,-0.131 -0.043,-0.246 -0.127,-0.346 0.161,-0.115 0.242,-0.266 0.242,-0.45 v -0.034 c 0.161,0 0.298,-0.056 0.409,-0.167 0.111,-0.112 0.167,-0.248 0.167,-0.409 0,-0.139 -0.042,-0.258 -0.127,-0.358 0.085,-0.054 0.154,-0.123 0.208,-0.208 0.053,-0.084 0.081,-0.18 0.081,-0.288 0,-0.107 -0.023,-0.201 -0.07,-0.282 -0.046,-0.081 -0.108,-0.148 -0.184,-0.202 0.069,-0.108 0.104,-0.215 0.104,-0.323 0,-0.162 -0.054,-0.297 -0.161,-0.409 -0.108,-0.112 -0.239,-0.171 -0.392,-0.179 -0.008,-0.161 -0.068,-0.296 -0.179,-0.403 -0.112,-0.108 -0.244,-0.162 -0.398,-0.162 m -12.751,6.872 c -0.108,-0.085 -0.227,-0.127 -0.358,-0.127 -0.084,0 -0.161,0.015 -0.23,0.046 -0.069,0.031 -0.131,0.069 -0.184,0.115 -0.108,-0.108 -0.243,-0.161 -0.404,-0.161 -0.162,0 -0.296,0.053 -0.404,0.161 -0.016,-0.015 -0.027,-0.023 -0.034,-0.023 0.139,-0.115 0.207,-0.261 0.207,-0.438 0,-0.161 -0.065,-0.307 -0.196,-0.438 0.131,-0.115 0.196,-0.258 0.196,-0.427 0,-0.177 -0.068,-0.323 -0.207,-0.438 0.139,-0.115 0.207,-0.261 0.207,-0.438 0,-0.177 -0.068,-0.323 -0.207,-0.438 0.139,-0.116 0.207,-0.261 0.207,-0.439 0,-0.161 -0.065,-0.306 -0.196,-0.437 0.131,-0.116 0.196,-0.258 0.196,-0.427 0,-0.177 -0.068,-0.323 -0.207,-0.438 0.139,-0.115 0.207,-0.262 0.207,-0.438 0,-0.177 -0.068,-0.323 -0.207,-0.438 0.139,-0.123 0.207,-0.269 0.207,-0.438 0,-0.162 -0.065,-0.308 -0.196,-0.439 l 0.023,-0.022 c 0.116,0.115 0.25,0.172 0.404,0.172 0.153,0 0.289,-0.057 0.404,-0.172 0.115,0.115 0.253,0.172 0.414,0.172 0.131,0 0.254,-0.046 0.37,-0.138 0.053,0.07 0.12,0.127 0.202,0.173 0.08,0.046 0.17,0.069 0.27,0.069 0.077,0 0.161,-0.019 0.254,-0.057 0.038,0.107 0.105,0.194 0.201,0.259 0.096,0.065 0.206,0.098 0.329,0.098 0.015,0 0.035,-0.002 0.058,-0.006 0.022,-0.004 0.042,-0.006 0.057,-0.006 0.023,0.131 0.087,0.243 0.191,0.335 0.103,0.093 0.225,0.142 0.363,0.15 v 0.058 c 0,0.13 0.038,0.245 0.115,0.345 0.077,0.1 0.177,0.169 0.3,0.208 -0.016,0.031 -0.023,0.061 -0.023,0.092 v 0.104 c 0,0.23 0.096,0.396 0.288,0.496 -0.062,0.1 -0.093,0.207 -0.093,0.322 0,0.162 0.058,0.3 0.174,0.416 -0.116,0.115 -0.174,0.253 -0.174,0.414 0,0.108 0.031,0.212 0.093,0.312 -0.2,0.115 -0.3,0.284 -0.3,0.507 0,0.062 0.012,0.127 0.035,0.196 -0.123,0.031 -0.225,0.096 -0.306,0.196 -0.08,0.1 -0.121,0.219 -0.121,0.358 v 0.046 c -0.138,0.007 -0.259,0.055 -0.363,0.144 -0.104,0.088 -0.167,0.201 -0.19,0.34 -0.024,-0.008 -0.061,-0.012 -0.115,-0.012 -0.124,0 -0.233,0.033 -0.329,0.098 -0.096,0.065 -0.168,0.152 -0.213,0.26 -0.062,-0.039 -0.143,-0.058 -0.242,-0.058 -0.208,0 -0.366,0.077 -0.473,0.231 m -0.772,0.864 c 0.107,0.108 0.245,0.161 0.414,0.161 0.192,0 0.346,-0.076 0.462,-0.23 0.099,0.085 0.222,0.127 0.369,0.127 0.115,0 0.221,-0.033 0.317,-0.098 0.096,-0.066 0.167,-0.152 0.213,-0.259 0.077,0.038 0.161,0.057 0.254,0.057 0.145,0 0.27,-0.046 0.375,-0.138 0.103,-0.092 0.167,-0.208 0.19,-0.346 0.022,0 0.044,0.002 0.063,0.006 0.019,0.003 0.04,0.005 0.064,0.005 0.161,0 0.297,-0.055 0.409,-0.166 0.111,-0.112 0.166,-0.248 0.166,-0.41 V 2.871 c 0.154,-0.008 0.285,-0.067 0.392,-0.179 0.109,-0.111 0.162,-0.244 0.162,-0.397 0,-0.078 -0.012,-0.143 -0.034,-0.197 0.13,-0.031 0.236,-0.097 0.317,-0.201 0.08,-0.104 0.121,-0.221 0.121,-0.352 0,-0.108 -0.031,-0.211 -0.092,-0.311 0.084,-0.054 0.155,-0.125 0.213,-0.214 0.057,-0.088 0.086,-0.186 0.086,-0.294 0,-0.169 -0.065,-0.311 -0.196,-0.427 0.123,-0.106 0.185,-0.241 0.185,-0.403 0,-0.107 -0.027,-0.206 -0.081,-0.294 -0.054,-0.088 -0.123,-0.159 -0.207,-0.213 0.061,-0.1 0.092,-0.203 0.092,-0.311 0,-0.139 -0.041,-0.256 -0.121,-0.352 -0.081,-0.096 -0.183,-0.163 -0.306,-0.202 0.023,-0.061 0.035,-0.126 0.035,-0.195 0,-0.162 -0.054,-0.297 -0.162,-0.404 -0.107,-0.108 -0.238,-0.166 -0.392,-0.174 v -0.056 c 0,-0.154 -0.056,-0.289 -0.167,-0.404 -0.111,-0.116 -0.248,-0.173 -0.409,-0.173 -0.054,0 -0.096,0.004 -0.127,0.011 -0.023,-0.138 -0.086,-0.253 -0.19,-0.345 -0.104,-0.093 -0.229,-0.139 -0.375,-0.139 -0.076,0 -0.161,0.019 -0.254,0.058 -0.038,-0.108 -0.106,-0.194 -0.201,-0.259 -0.097,-0.066 -0.206,-0.099 -0.329,-0.099 -0.146,0 -0.273,0.042 -0.38,0.127 -0.116,-0.154 -0.27,-0.23 -0.462,-0.23 -0.169,0 -0.307,0.053 -0.414,0.161 -0.108,-0.108 -0.243,-0.161 -0.404,-0.161 -0.169,0 -0.307,0.053 -0.415,0.161 -0.108,-0.108 -0.238,-0.161 -0.392,-0.161 -0.162,0 -0.3,0.055 -0.415,0.167 -0.116,0.111 -0.173,0.248 -0.173,0.409 0,0.169 0.065,0.311 0.196,0.426 -0.062,0.063 -0.11,0.129 -0.144,0.202 -0.035,0.073 -0.052,0.152 -0.052,0.237 0,0.084 0.017,0.163 0.052,0.236 0.034,0.073 0.082,0.14 0.144,0.202 -0.131,0.115 -0.196,0.261 -0.196,0.438 0,0.176 0.065,0.323 0.196,0.438 -0.131,0.115 -0.196,0.261 -0.196,0.438 0,0.169 0.065,0.311 0.196,0.427 -0.131,0.131 -0.196,0.276 -0.196,0.437 0,0.178 0.065,0.323 0.196,0.439 -0.131,0.115 -0.196,0.261 -0.196,0.438 0,0.177 0.065,0.323 0.196,0.438 -0.131,0.115 -0.196,0.261 -0.196,0.438 0,0.169 0.065,0.312 0.196,0.427 -0.131,0.131 -0.196,0.277 -0.196,0.438 0,0.177 0.065,0.323 0.196,0.438 -0.131,0.116 -0.196,0.262 -0.196,0.438 0,0.162 0.057,0.298 0.173,0.41 0.115,0.111 0.253,0.166 0.415,0.166 0.146,0 0.277,-0.057 0.392,-0.172 0.116,0.115 0.253,0.172 0.415,0.172 0.153,0 0.289,-0.057 0.404,-0.172 z m -8.521,-3.47 c -0.13,0.107 -0.196,0.254 -0.196,0.438 0,0.184 0.066,0.33 0.196,0.438 -0.13,0.108 -0.196,0.254 -0.196,0.438 0,0.177 0.066,0.319 0.196,0.427 -0.13,0.115 -0.196,0.261 -0.196,0.438 0,0.185 0.066,0.331 0.196,0.438 -0.13,0.107 -0.196,0.253 -0.196,0.438 0,0.162 0.056,0.298 0.167,0.41 0.112,0.111 0.248,0.166 0.41,0.166 0.154,0 0.288,-0.057 0.403,-0.172 0.116,0.115 0.254,0.172 0.415,0.172 0.146,0 0.277,-0.057 0.392,-0.172 0.116,0.115 0.254,0.172 0.416,0.172 0.153,0 0.288,-0.057 0.403,-0.172 0.115,0.115 0.254,0.172 0.415,0.172 0.146,0 0.276,-0.057 0.392,-0.172 0.116,0.115 0.254,0.172 0.415,0.172 0.154,0 0.289,-0.057 0.404,-0.172 0.115,0.115 0.254,0.172 0.415,0.172 0.153,0 0.288,-0.055 0.403,-0.166 0.116,-0.112 0.173,-0.248 0.173,-0.41 0,-0.161 -0.057,-0.298 -0.173,-0.409 -0.115,-0.112 -0.25,-0.167 -0.403,-0.167 -0.17,0 -0.308,0.053 -0.415,0.161 -0.108,-0.108 -0.243,-0.161 -0.404,-0.161 -0.169,0 -0.308,0.053 -0.415,0.161 -0.107,-0.108 -0.238,-0.161 -0.392,-0.161 -0.169,0 -0.308,0.053 -0.415,0.161 -0.108,-0.108 -0.242,-0.161 -0.403,-0.161 -0.169,0 -0.308,0.053 -0.416,0.161 -0.107,-0.108 -0.238,-0.161 -0.392,-0.161 -0.169,0 -0.307,0.053 -0.415,0.161 l -0.023,-0.023 c 0.131,-0.115 0.196,-0.261 0.196,-0.438 0,-0.161 -0.065,-0.307 -0.196,-0.438 0.131,-0.115 0.196,-0.258 0.196,-0.427 0,-0.177 -0.065,-0.323 -0.196,-0.438 0.131,-0.115 0.196,-0.261 0.196,-0.438 0,-0.131 -0.038,-0.246 -0.115,-0.346 0.054,0.023 0.123,0.035 0.208,0.035 0.146,0 0.272,-0.054 0.38,-0.162 0.054,0.047 0.114,0.085 0.179,0.116 0.065,0.031 0.14,0.046 0.225,0.046 0.076,0 0.148,-0.015 0.213,-0.046 0.065,-0.031 0.121,-0.069 0.167,-0.116 0.054,0.047 0.113,0.085 0.178,0.116 0.066,0.031 0.137,0.046 0.214,0.046 0.077,0 0.148,-0.015 0.213,-0.046 0.066,-0.031 0.126,-0.069 0.179,-0.116 0.054,0.047 0.113,0.085 0.179,0.116 0.065,0.031 0.136,0.046 0.213,0.046 0.077,0 0.148,-0.015 0.213,-0.046 0.065,-0.031 0.125,-0.069 0.179,-0.116 0.054,0.047 0.113,0.085 0.179,0.116 0.065,0.031 0.136,0.046 0.213,0.046 0.153,0 0.286,-0.057 0.398,-0.168 0.111,-0.111 0.167,-0.244 0.167,-0.398 0,-0.153 -0.056,-0.284 -0.167,-0.391 -0.112,-0.108 -0.245,-0.162 -0.398,-0.162 -0.154,0 -0.285,0.054 -0.392,0.162 -0.108,-0.108 -0.238,-0.162 -0.392,-0.162 -0.154,0 -0.284,0.054 -0.392,0.162 -0.108,-0.108 -0.238,-0.162 -0.392,-0.162 -0.154,0 -0.285,0.054 -0.392,0.162 -0.092,-0.108 -0.219,-0.162 -0.38,-0.162 -0.161,0 -0.296,0.054 -0.404,0.162 -0.092,-0.108 -0.219,-0.162 -0.38,-0.162 -0.085,0 -0.154,0.012 -0.208,0.035 0.077,-0.115 0.115,-0.231 0.115,-0.346 0,-0.177 -0.065,-0.323 -0.196,-0.438 0.131,-0.115 0.196,-0.262 0.196,-0.438 0,-0.177 -0.065,-0.323 -0.196,-0.438 0.131,-0.131 0.196,-0.277 0.196,-0.438 0,-0.162 -0.065,-0.308 -0.196,-0.439 0.008,0 0.012,-0.004 0.012,-0.011 0,-0.008 0.004,-0.011 0.011,-0.011 0.116,0.115 0.254,0.172 0.415,0.172 0.154,0 0.289,-0.057 0.404,-0.172 0.115,0.115 0.25,0.172 0.404,0.172 0.153,0 0.288,-0.057 0.403,-0.172 0.115,0.115 0.254,0.172 0.415,0.172 0.154,0 0.288,-0.057 0.403,-0.172 0.116,0.115 0.25,0.172 0.404,0.172 0.154,0 0.289,-0.057 0.404,-0.172 0.115,0.115 0.254,0.172 0.415,0.172 0.153,0 0.288,-0.057 0.403,-0.172 0.116,-0.115 0.173,-0.251 0.173,-0.404 0,-0.161 -0.057,-0.298 -0.173,-0.409 -0.115,-0.112 -0.25,-0.167 -0.403,-0.167 -0.17,0 -0.308,0.053 -0.415,0.161 -0.108,-0.108 -0.243,-0.161 -0.404,-0.161 -0.169,0 -0.308,0.053 -0.415,0.161 -0.107,-0.108 -0.238,-0.161 -0.392,-0.161 -0.169,0 -0.308,0.053 -0.415,0.161 -0.108,-0.108 -0.242,-0.161 -0.403,-0.161 -0.169,0 -0.308,0.053 -0.416,0.161 -0.107,-0.108 -0.238,-0.161 -0.392,-0.161 -0.169,0 -0.307,0.053 -0.415,0.161 -0.107,-0.108 -0.241,-0.161 -0.403,-0.161 -0.162,0 -0.298,0.055 -0.41,0.167 -0.111,0.111 -0.167,0.248 -0.167,0.409 0,0.176 0.066,0.319 0.196,0.426 -0.13,0.116 -0.196,0.262 -0.196,0.439 0,0.177 0.066,0.323 0.196,0.438 -0.13,0.108 -0.196,0.254 -0.196,0.438 0,0.184 0.066,0.33 0.196,0.438 -0.13,0.107 -0.196,0.254 -0.196,0.438 0,0.177 0.066,0.319 0.196,0.427 -0.13,0.107 -0.196,0.253 -0.196,0.437 0,0.085 0.018,0.166 0.052,0.243 0.035,0.077 0.083,0.142 0.144,0.196 m -2.121,3.631 c 0.154,0 0.288,-0.055 0.404,-0.166 0.115,-0.112 0.172,-0.248 0.172,-0.41 0,-0.161 -0.057,-0.298 -0.172,-0.409 -0.116,-0.112 -0.25,-0.167 -0.404,-0.167 -0.162,0 -0.3,0.05 -0.415,0.15 -0.115,-0.1 -0.246,-0.15 -0.392,-0.15 -0.154,0 -0.288,0.05 -0.403,0.15 -0.116,-0.1 -0.247,-0.15 -0.393,-0.15 -0.153,0 -0.288,0.05 -0.403,0.15 -0.092,-0.078 -0.196,-0.127 -0.311,-0.15 0.061,-0.085 0.092,-0.181 0.092,-0.289 0,-0.177 -0.069,-0.326 -0.208,-0.449 0.139,-0.115 0.208,-0.258 0.208,-0.427 0,-0.177 -0.069,-0.323 -0.208,-0.438 0.139,-0.115 0.208,-0.261 0.208,-0.438 0,-0.177 -0.069,-0.323 -0.208,-0.438 0.139,-0.123 0.208,-0.269 0.208,-0.439 0,-0.161 -0.065,-0.306 -0.196,-0.437 0.131,-0.116 0.196,-0.258 0.196,-0.427 0,-0.177 -0.069,-0.323 -0.208,-0.438 0.139,-0.115 0.208,-0.262 0.208,-0.438 0,-0.161 -0.065,-0.308 -0.196,-0.438 0.131,-0.115 0.196,-0.258 0.196,-0.426 0,-0.178 -0.069,-0.323 -0.208,-0.439 0.139,-0.115 0.208,-0.262 0.208,-0.438 0,-0.161 -0.058,-0.298 -0.173,-0.409 -0.116,-0.112 -0.25,-0.167 -0.404,-0.167 -0.161,0 -0.298,0.055 -0.409,0.167 -0.111,0.111 -0.167,0.248 -0.167,0.409 0,0.176 0.066,0.319 0.196,0.426 -0.13,0.116 -0.196,0.266 -0.196,0.451 0,0.176 0.066,0.318 0.196,0.426 -0.13,0.115 -0.196,0.261 -0.196,0.438 0,0.184 0.066,0.33 0.196,0.438 -0.13,0.107 -0.196,0.254 -0.196,0.438 0,0.177 0.066,0.319 0.196,0.427 -0.13,0.116 -0.196,0.261 -0.196,0.437 0,0.178 0.066,0.323 0.196,0.439 -0.13,0.107 -0.196,0.254 -0.196,0.438 0,0.184 0.066,0.33 0.196,0.438 -0.13,0.108 -0.196,0.254 -0.196,0.438 0,0.177 0.066,0.319 0.196,0.427 -0.13,0.115 -0.196,0.265 -0.196,0.449 0,0.116 0.027,0.211 0.081,0.289 -0.131,0.023 -0.235,0.072 -0.312,0.15 -0.115,-0.1 -0.246,-0.15 -0.391,-0.15 -0.162,0 -0.297,0.053 -0.404,0.161 -0.108,-0.108 -0.242,-0.161 -0.404,-0.161 -0.153,0 -0.288,0.05 -0.403,0.15 -0.115,-0.1 -0.246,-0.15 -0.392,-0.15 -0.162,0 -0.298,0.055 -0.409,0.167 -0.111,0.111 -0.167,0.248 -0.167,0.409 0,0.162 0.056,0.298 0.167,0.41 0.111,0.111 0.247,0.166 0.409,0.166 0.076,0 0.148,-0.015 0.213,-0.045 0.066,-0.031 0.125,-0.07 0.179,-0.116 0.054,0.046 0.115,0.085 0.185,0.116 0.069,0.03 0.142,0.045 0.218,0.045 0.085,0 0.16,-0.015 0.225,-0.045 0.066,-0.031 0.125,-0.07 0.179,-0.116 0.053,0.046 0.113,0.085 0.179,0.116 0.065,0.03 0.14,0.045 0.225,0.045 0.076,0 0.147,-0.015 0.213,-0.045 0.065,-0.031 0.125,-0.07 0.178,-0.116 0.054,0.046 0.114,0.085 0.179,0.116 0.065,0.03 0.14,0.045 0.225,0.045 0.077,0 0.148,-0.015 0.213,-0.045 0.065,-0.031 0.125,-0.07 0.179,-0.116 0.054,0.046 0.115,0.085 0.184,0.116 0.07,0.03 0.143,0.045 0.22,0.045 0.076,0 0.15,-0.015 0.219,-0.045 0.069,-0.031 0.13,-0.07 0.184,-0.116 0.054,0.046 0.114,0.085 0.179,0.116 0.065,0.03 0.14,0.045 0.224,0.045 0.077,0 0.148,-0.015 0.214,-0.045 0.065,-0.031 0.125,-0.07 0.179,-0.116 0.053,0.046 0.113,0.085 0.178,0.116 0.065,0.03 0.141,0.045 0.225,0.045 0.077,0 0.148,-0.015 0.213,-0.045 0.065,-0.031 0.125,-0.07 0.179,-0.116 0.054,0.046 0.115,0.085 0.184,0.116 0.069,0.03 0.146,0.045 0.231,0.045 M -41.643,4.266 c 0.139,0 0.261,-0.042 0.369,-0.127 0.115,0.154 0.273,0.23 0.473,0.23 0.192,0 0.346,-0.076 0.461,-0.23 0.108,0.085 0.231,0.127 0.37,0.127 0.115,0 0.22,-0.033 0.316,-0.098 0.096,-0.066 0.167,-0.152 0.213,-0.259 0.077,0.038 0.162,0.057 0.254,0.057 0.146,0 0.271,-0.046 0.375,-0.138 0.104,-0.092 0.167,-0.208 0.19,-0.346 0.023,0 0.044,0.002 0.064,0.006 0.019,0.003 0.04,0.005 0.063,0.005 0.161,0 0.297,-0.055 0.409,-0.166 0.111,-0.112 0.167,-0.248 0.167,-0.41 0,-0.161 -0.056,-0.298 -0.167,-0.409 -0.112,-0.112 -0.248,-0.167 -0.409,-0.167 -0.147,0 -0.273,0.046 -0.381,0.138 -0.107,0.092 -0.172,0.207 -0.196,0.346 -0.023,-0.008 -0.061,-0.012 -0.115,-0.012 -0.123,0 -0.232,0.033 -0.328,0.098 -0.096,0.065 -0.168,0.152 -0.214,0.26 -0.061,-0.039 -0.142,-0.058 -0.241,-0.058 -0.101,0 -0.189,0.021 -0.266,0.063 -0.077,0.042 -0.146,0.098 -0.207,0.168 -0.1,-0.085 -0.219,-0.127 -0.358,-0.127 -0.146,0 -0.273,0.042 -0.38,0.127 -0.116,-0.154 -0.27,-0.231 -0.462,-0.231 -0.1,0 -0.184,0.019 -0.253,0.058 -0.039,-0.108 -0.106,-0.195 -0.202,-0.26 -0.096,-0.065 -0.206,-0.098 -0.329,-0.098 -0.053,0 -0.096,0.004 -0.127,0.012 -0.015,-0.139 -0.075,-0.252 -0.178,-0.34 -0.104,-0.089 -0.225,-0.137 -0.363,-0.144 V 2.295 c 0,-0.139 -0.04,-0.258 -0.122,-0.358 -0.08,-0.1 -0.182,-0.165 -0.305,-0.196 0.023,-0.069 0.035,-0.134 0.035,-0.196 0,-0.108 -0.029,-0.206 -0.086,-0.294 -0.058,-0.089 -0.129,-0.159 -0.214,-0.213 0.061,-0.1 0.092,-0.204 0.092,-0.312 0,-0.169 -0.061,-0.307 -0.185,-0.414 0.124,-0.108 0.185,-0.247 0.185,-0.416 0,-0.115 -0.031,-0.222 -0.092,-0.322 0.192,-0.1 0.288,-0.266 0.288,-0.496 0,-0.077 -0.011,-0.143 -0.034,-0.196 0.122,-0.039 0.225,-0.108 0.305,-0.208 0.081,-0.1 0.121,-0.215 0.121,-0.345 v -0.058 c 0.138,-0.008 0.259,-0.057 0.363,-0.15 0.104,-0.092 0.164,-0.204 0.179,-0.335 0.023,0 0.044,0.002 0.063,0.006 0.019,0.004 0.041,0.006 0.064,0.006 0.123,0 0.232,-0.033 0.328,-0.098 0.097,-0.065 0.164,-0.152 0.203,-0.259 0.091,0.038 0.176,0.057 0.253,0.057 0.2,0 0.357,-0.081 0.473,-0.242 0.115,0.092 0.242,0.138 0.38,0.138 0.13,0 0.254,-0.046 0.369,-0.138 0.054,0.07 0.121,0.127 0.202,0.173 0.081,0.046 0.171,0.069 0.271,0.069 0.084,0 0.165,-0.019 0.242,-0.057 0.046,0.107 0.117,0.194 0.213,0.259 0.096,0.065 0.205,0.098 0.329,0.098 0.015,0 0.034,-0.002 0.057,-0.006 0.023,-0.004 0.042,-0.006 0.058,-0.006 0.023,0.139 0.088,0.254 0.196,0.346 0.107,0.093 0.234,0.139 0.38,0.139 0.162,0 0.299,-0.056 0.409,-0.167 0.112,-0.112 0.168,-0.248 0.168,-0.409 0,-0.154 -0.056,-0.289 -0.168,-0.404 -0.11,-0.116 -0.247,-0.173 -0.409,-0.173 -0.054,0 -0.096,0.004 -0.126,0.011 -0.023,-0.138 -0.087,-0.253 -0.191,-0.345 -0.103,-0.093 -0.228,-0.139 -0.374,-0.139 -0.1,0 -0.185,0.015 -0.254,0.046 -0.039,-0.108 -0.106,-0.192 -0.202,-0.253 -0.096,-0.062 -0.206,-0.093 -0.328,-0.093 -0.146,0 -0.273,0.042 -0.381,0.127 -0.115,-0.154 -0.269,-0.23 -0.461,-0.23 -0.2,0 -0.362,0.08 -0.484,0.242 -0.093,-0.093 -0.215,-0.139 -0.369,-0.139 -0.123,0 -0.233,0.031 -0.329,0.093 -0.096,0.061 -0.167,0.145 -0.213,0.253 -0.061,-0.031 -0.142,-0.046 -0.242,-0.046 -0.146,0 -0.273,0.046 -0.381,0.139 -0.107,0.092 -0.173,0.207 -0.195,0.345 -0.024,-0.007 -0.062,-0.011 -0.116,-0.011 -0.161,0 -0.298,0.057 -0.409,0.173 -0.112,0.115 -0.167,0.25 -0.167,0.404 v 0.056 c -0.154,0.008 -0.285,0.066 -0.392,0.174 -0.108,0.107 -0.162,0.242 -0.162,0.404 v 0.103 c 0,0.031 0.008,0.062 0.024,0.092 -0.124,0.039 -0.223,0.108 -0.301,0.208 -0.077,0.1 -0.115,0.215 -0.115,0.346 0,0.108 0.031,0.211 0.093,0.311 -0.085,0.054 -0.154,0.125 -0.208,0.213 -0.054,0.088 -0.081,0.187 -0.081,0.294 0,0.162 0.058,0.3 0.174,0.416 -0.116,0.115 -0.174,0.253 -0.174,0.414 0,0.108 0.027,0.206 0.081,0.294 0.054,0.089 0.123,0.16 0.208,0.214 -0.062,0.1 -0.093,0.203 -0.093,0.311 0,0.131 0.041,0.246 0.122,0.346 0.08,0.1 0.182,0.169 0.305,0.207 -0.015,0.031 -0.024,0.062 -0.024,0.093 v 0.104 c 0,0.153 0.055,0.286 0.162,0.397 0.108,0.112 0.238,0.171 0.392,0.179 v 0.046 c 0,0.162 0.058,0.298 0.173,0.41 0.115,0.111 0.25,0.166 0.404,0.166 0.015,0 0.034,-0.002 0.058,-0.005 0.022,-0.004 0.041,-0.006 0.057,-0.006 0.023,0.138 0.089,0.254 0.196,0.346 0.108,0.092 0.234,0.138 0.38,0.138 0.077,0 0.162,-0.019 0.254,-0.057 0.038,0.107 0.106,0.193 0.202,0.259 0.095,0.065 0.205,0.098 0.328,0.098 m -9.523,-3.528 c -0.13,0.107 -0.195,0.254 -0.195,0.438 0,0.184 0.065,0.33 0.195,0.438 -0.13,0.108 -0.195,0.254 -0.195,0.438 0,0.177 0.065,0.319 0.195,0.427 -0.13,0.115 -0.195,0.261 -0.195,0.438 0,0.185 0.065,0.331 0.195,0.438 -0.13,0.107 -0.195,0.253 -0.195,0.438 0,0.162 0.055,0.298 0.166,0.41 0.112,0.111 0.248,0.166 0.409,0.166 0.154,0 0.289,-0.057 0.404,-0.172 0.116,0.115 0.254,0.172 0.416,0.172 0.146,0 0.276,-0.057 0.391,-0.172 0.116,0.115 0.254,0.172 0.416,0.172 0.153,0 0.288,-0.057 0.403,-0.172 0.115,0.115 0.254,0.172 0.415,0.172 0.146,0 0.276,-0.057 0.392,-0.172 0.115,0.115 0.254,0.172 0.415,0.172 0.154,0 0.289,-0.057 0.404,-0.172 0.115,0.115 0.253,0.172 0.415,0.172 0.153,0 0.288,-0.055 0.403,-0.166 0.115,-0.112 0.173,-0.248 0.173,-0.41 0,-0.161 -0.058,-0.298 -0.173,-0.409 -0.115,-0.112 -0.25,-0.167 -0.403,-0.167 -0.17,0 -0.308,0.053 -0.415,0.161 -0.108,-0.108 -0.243,-0.161 -0.404,-0.161 -0.169,0 -0.308,0.053 -0.415,0.161 -0.108,-0.108 -0.238,-0.161 -0.392,-0.161 -0.169,0 -0.308,0.053 -0.415,0.161 -0.108,-0.108 -0.242,-0.161 -0.403,-0.161 -0.17,0 -0.308,0.053 -0.416,0.161 -0.107,-0.108 -0.238,-0.161 -0.391,-0.161 -0.17,0 -0.308,0.053 -0.416,0.161 l -0.023,-0.023 c 0.131,-0.115 0.196,-0.261 0.196,-0.438 0,-0.161 -0.065,-0.307 -0.196,-0.438 0.131,-0.115 0.196,-0.258 0.196,-0.427 0,-0.177 -0.065,-0.323 -0.196,-0.438 0.131,-0.115 0.196,-0.261 0.196,-0.438 0,-0.131 -0.038,-0.246 -0.115,-0.346 0.054,0.023 0.123,0.035 0.208,0.035 0.145,0 0.272,-0.054 0.38,-0.162 0.054,0.047 0.113,0.085 0.179,0.116 0.065,0.031 0.14,0.046 0.224,0.046 0.077,0 0.148,-0.015 0.214,-0.046 0.065,-0.031 0.121,-0.069 0.166,-0.116 0.055,0.047 0.114,0.085 0.179,0.116 0.066,0.031 0.137,0.046 0.214,0.046 0.077,0 0.148,-0.015 0.214,-0.046 0.065,-0.031 0.124,-0.069 0.178,-0.116 0.054,0.047 0.113,0.085 0.179,0.116 0.064,0.031 0.136,0.046 0.213,0.046 0.077,0 0.147,-0.015 0.213,-0.046 0.065,-0.031 0.125,-0.069 0.179,-0.116 0.054,0.047 0.113,0.085 0.178,0.116 0.066,0.031 0.137,0.046 0.214,0.046 0.153,0 0.286,-0.057 0.397,-0.168 0.112,-0.111 0.168,-0.244 0.168,-0.398 0,-0.153 -0.056,-0.284 -0.168,-0.391 -0.111,-0.108 -0.244,-0.162 -0.397,-0.162 -0.154,0 -0.285,0.054 -0.392,0.162 -0.108,-0.108 -0.239,-0.162 -0.392,-0.162 -0.154,0 -0.285,0.054 -0.392,0.162 -0.108,-0.108 -0.238,-0.162 -0.392,-0.162 -0.154,0 -0.285,0.054 -0.393,0.162 -0.091,-0.108 -0.218,-0.162 -0.38,-0.162 -0.161,0 -0.295,0.054 -0.403,0.162 -0.092,-0.108 -0.219,-0.162 -0.38,-0.162 -0.085,0 -0.154,0.012 -0.208,0.035 0.077,-0.115 0.115,-0.231 0.115,-0.346 0,-0.177 -0.065,-0.323 -0.196,-0.438 0.131,-0.115 0.196,-0.262 0.196,-0.438 0,-0.177 -0.065,-0.323 -0.196,-0.438 0.131,-0.131 0.196,-0.277 0.196,-0.438 0,-0.162 -0.065,-0.308 -0.196,-0.439 0.008,0 0.012,-0.004 0.012,-0.011 0,-0.008 0.004,-0.011 0.011,-0.011 0.116,0.115 0.254,0.172 0.416,0.172 0.153,0 0.288,-0.057 0.403,-0.172 0.115,0.115 0.25,0.172 0.404,0.172 0.153,0 0.288,-0.057 0.403,-0.172 0.115,0.115 0.254,0.172 0.415,0.172 0.154,0 0.289,-0.057 0.403,-0.172 0.116,0.115 0.25,0.172 0.404,0.172 0.154,0 0.289,-0.057 0.404,-0.172 0.115,0.115 0.253,0.172 0.415,0.172 0.153,0 0.288,-0.057 0.403,-0.172 0.115,-0.115 0.173,-0.251 0.173,-0.404 0,-0.161 -0.058,-0.298 -0.173,-0.409 -0.115,-0.112 -0.25,-0.167 -0.403,-0.167 -0.17,0 -0.308,0.053 -0.415,0.161 -0.108,-0.108 -0.243,-0.161 -0.404,-0.161 -0.169,0 -0.308,0.053 -0.415,0.161 -0.108,-0.108 -0.238,-0.161 -0.392,-0.161 -0.169,0 -0.308,0.053 -0.415,0.161 -0.108,-0.108 -0.242,-0.161 -0.403,-0.161 -0.17,0 -0.308,0.053 -0.416,0.161 -0.107,-0.108 -0.238,-0.161 -0.391,-0.161 -0.17,0 -0.308,0.053 -0.416,0.161 -0.107,-0.108 -0.242,-0.161 -0.404,-0.161 -0.161,0 -0.297,0.055 -0.409,0.167 -0.111,0.111 -0.166,0.248 -0.166,0.409 0,0.176 0.065,0.319 0.195,0.426 -0.13,0.116 -0.195,0.262 -0.195,0.439 0,0.177 0.065,0.323 0.195,0.438 -0.13,0.108 -0.195,0.254 -0.195,0.438 0,0.184 0.065,0.33 0.195,0.438 -0.13,0.107 -0.195,0.254 -0.195,0.438 0,0.177 0.065,0.319 0.195,0.427 -0.13,0.107 -0.195,0.253 -0.195,0.437 0,0.085 0.017,0.166 0.051,0.243 0.035,0.077 0.083,0.142 0.144,0.196 m -8.739,2.271 c 0,0.146 0.054,0.273 0.162,0.38 -0.108,0.108 -0.162,0.243 -0.162,0.404 0,0.154 0.058,0.288 0.173,0.404 0.115,0.115 0.25,0.172 0.404,0.172 0.161,0 0.298,-0.057 0.409,-0.172 0.112,-0.116 0.167,-0.25 0.167,-0.404 0,-0.03 -0.008,-0.077 -0.023,-0.138 0.146,-0.016 0.271,-0.073 0.375,-0.173 0.104,-0.1 0.156,-0.227 0.156,-0.38 0,-0.047 -0.005,-0.078 -0.012,-0.093 0.154,-0.015 0.284,-0.077 0.392,-0.184 0.108,-0.109 0.161,-0.239 0.161,-0.392 0,-0.031 -0.007,-0.077 -0.023,-0.138 0.162,-0.008 0.298,-0.066 0.41,-0.174 0.111,-0.107 0.167,-0.242 0.167,-0.403 0,-0.039 -0.008,-0.08 -0.023,-0.127 0.153,-0.008 0.286,-0.067 0.397,-0.178 0.112,-0.112 0.168,-0.245 0.168,-0.398 0,-0.031 -0.008,-0.077 -0.024,-0.139 0.162,-0.008 0.299,-0.068 0.41,-0.179 0.111,-0.111 0.167,-0.244 0.167,-0.398 0,-0.038 -0.008,-0.08 -0.023,-0.126 0.162,-0.008 0.298,-0.067 0.409,-0.179 0.112,-0.111 0.167,-0.248 0.167,-0.409 0,-0.039 -0.007,-0.081 -0.023,-0.126 0.162,-0.008 0.298,-0.068 0.41,-0.179 0.111,-0.112 0.167,-0.244 0.167,-0.398 0,-0.039 -0.008,-0.081 -0.023,-0.127 0.192,0 0.346,-0.081 0.461,-0.242 0.023,0.146 0.092,0.269 0.207,0.369 -0.138,0.115 -0.207,0.265 -0.207,0.449 0,0.177 0.069,0.324 0.207,0.439 -0.138,0.122 -0.207,0.273 -0.207,0.449 0,0.177 0.069,0.327 0.207,0.45 -0.138,0.115 -0.207,0.265 -0.207,0.449 0,0.177 0.069,0.323 0.207,0.439 -0.138,0.115 -0.207,0.265 -0.207,0.449 0,0.177 0.069,0.323 0.207,0.438 -0.138,0.123 -0.207,0.272 -0.207,0.45 0,0.176 0.069,0.323 0.207,0.438 -0.138,0.123 -0.207,0.276 -0.207,0.461 0,0.154 0.057,0.288 0.173,0.404 0.115,0.115 0.25,0.172 0.403,0.172 0.162,0 0.298,-0.057 0.41,-0.172 0.111,-0.116 0.167,-0.25 0.167,-0.404 0,-0.185 -0.069,-0.338 -0.207,-0.461 0.138,-0.115 0.207,-0.262 0.207,-0.438 0,-0.178 -0.069,-0.327 -0.207,-0.45 0.138,-0.115 0.207,-0.261 0.207,-0.438 0,-0.184 -0.069,-0.334 -0.207,-0.449 0.138,-0.116 0.207,-0.262 0.207,-0.439 0,-0.184 -0.069,-0.334 -0.207,-0.449 0.138,-0.123 0.207,-0.273 0.207,-0.45 0,-0.176 -0.069,-0.327 -0.207,-0.449 0.138,-0.115 0.207,-0.262 0.207,-0.439 0,-0.092 -0.021,-0.177 -0.063,-0.253 -0.043,-0.077 -0.095,-0.143 -0.156,-0.196 0.061,-0.054 0.113,-0.119 0.156,-0.196 0.042,-0.077 0.063,-0.162 0.063,-0.254 0,-0.092 -0.021,-0.177 -0.063,-0.253 -0.043,-0.078 -0.095,-0.143 -0.156,-0.196 0.107,-0.108 0.161,-0.239 0.161,-0.393 0,-0.131 -0.042,-0.249 -0.126,-0.357 0.13,-0.115 0.195,-0.257 0.195,-0.427 0,-0.153 -0.057,-0.287 -0.172,-0.403 -0.116,-0.115 -0.254,-0.173 -0.416,-0.173 -0.153,0 -0.288,0.058 -0.403,0.173 -0.116,0.116 -0.173,0.25 -0.173,0.403 0,0.062 0.004,0.108 0.012,0.139 -0.146,0.015 -0.268,0.075 -0.364,0.179 -0.096,0.104 -0.144,0.228 -0.144,0.374 0,0.046 0.004,0.081 0.012,0.104 -0.154,0.007 -0.285,0.065 -0.392,0.173 -0.108,0.107 -0.161,0.242 -0.161,0.404 0,0.053 0.003,0.095 0.011,0.126 -0.154,0 -0.288,0.058 -0.404,0.173 -0.115,0.116 -0.173,0.25 -0.173,0.404 0,0.053 0.004,0.096 0.012,0.126 -0.154,0.008 -0.284,0.068 -0.392,0.179 -0.108,0.111 -0.162,0.244 -0.162,0.398 0,0.061 0.005,0.107 0.012,0.139 -0.154,0 -0.286,0.055 -0.398,0.167 -0.111,0.111 -0.167,0.247 -0.167,0.408 0,0.062 0.004,0.109 0.012,0.139 -0.154,0 -0.287,0.056 -0.398,0.167 -0.112,0.112 -0.167,0.248 -0.167,0.41 0,0.053 0.004,0.096 0.011,0.127 -0.153,0.007 -0.284,0.067 -0.392,0.178 -0.108,0.112 -0.161,0.244 -0.161,0.398 0,0.054 0.004,0.096 0.011,0.126 -0.192,0 -0.345,0.078 -0.461,0.231 -0.008,-0.146 -0.077,-0.268 -0.207,-0.368 0.061,-0.054 0.113,-0.12 0.155,-0.197 0.042,-0.076 0.064,-0.157 0.064,-0.242 0,-0.092 -0.022,-0.176 -0.064,-0.253 -0.042,-0.077 -0.094,-0.143 -0.155,-0.196 0.061,-0.054 0.113,-0.12 0.155,-0.197 0.042,-0.076 0.064,-0.157 0.064,-0.241 0,-0.185 -0.073,-0.338 -0.219,-0.461 0.061,-0.055 0.113,-0.12 0.155,-0.196 0.042,-0.078 0.064,-0.158 0.064,-0.243 0,-0.084 -0.022,-0.165 -0.064,-0.242 -0.042,-0.076 -0.094,-0.146 -0.155,-0.208 0.061,-0.053 0.113,-0.118 0.155,-0.195 0.042,-0.078 0.064,-0.158 0.064,-0.242 0,-0.092 -0.022,-0.177 -0.064,-0.254 -0.042,-0.077 -0.094,-0.143 -0.155,-0.196 0.061,-0.054 0.113,-0.119 0.155,-0.196 0.042,-0.077 0.064,-0.157 0.064,-0.242 0,-0.185 -0.073,-0.338 -0.219,-0.462 0.061,-0.054 0.113,-0.119 0.155,-0.195 0.042,-0.078 0.064,-0.158 0.064,-0.243 0,-0.153 -0.058,-0.287 -0.173,-0.403 -0.115,-0.115 -0.254,-0.173 -0.415,-0.173 -0.154,0 -0.289,0.058 -0.404,0.173 -0.115,0.116 -0.173,0.25 -0.173,0.403 0,0.177 0.07,0.323 0.208,0.438 -0.138,0.124 -0.208,0.277 -0.208,0.462 0,0.176 0.07,0.323 0.208,0.438 -0.138,0.115 -0.208,0.265 -0.208,0.45 0,0.176 0.07,0.322 0.208,0.437 -0.138,0.123 -0.208,0.273 -0.208,0.45 0,0.177 0.07,0.323 0.208,0.439 -0.138,0.123 -0.208,0.276 -0.208,0.461 0,0.176 0.07,0.322 0.208,0.438 -0.138,0.115 -0.208,0.265 -0.208,0.449 0,0.177 0.07,0.323 0.208,0.439 -0.138,0.115 -0.208,0.265 -0.208,0.449 0,0.177 0.065,0.319 0.196,0.427 -0.131,0.115 -0.196,0.257 -0.196,0.426 m -8.543,0 c 0,0.146 0.054,0.273 0.161,0.38 -0.107,0.108 -0.161,0.243 -0.161,0.404 0,0.154 0.058,0.288 0.173,0.404 0.115,0.115 0.25,0.172 0.404,0.172 0.161,0 0.297,-0.057 0.409,-0.172 0.111,-0.116 0.167,-0.25 0.167,-0.404 0,-0.03 -0.008,-0.077 -0.023,-0.138 0.146,-0.016 0.271,-0.073 0.375,-0.173 0.103,-0.1 0.155,-0.227 0.155,-0.38 0,-0.047 -0.004,-0.078 -0.011,-0.093 0.153,-0.015 0.284,-0.077 0.392,-0.184 0.108,-0.109 0.161,-0.239 0.161,-0.392 0,-0.031 -0.008,-0.077 -0.023,-0.138 0.162,-0.008 0.298,-0.066 0.409,-0.174 0.112,-0.107 0.168,-0.242 0.168,-0.403 0,-0.039 -0.008,-0.08 -0.023,-0.127 0.153,-0.008 0.286,-0.067 0.397,-0.178 0.111,-0.112 0.168,-0.245 0.168,-0.398 0,-0.031 -0.008,-0.077 -0.024,-0.139 0.162,-0.008 0.298,-0.068 0.41,-0.179 0.111,-0.111 0.167,-0.244 0.167,-0.398 0,-0.038 -0.008,-0.08 -0.023,-0.126 0.161,-0.008 0.297,-0.067 0.409,-0.179 0.111,-0.111 0.167,-0.248 0.167,-0.409 0,-0.039 -0.007,-0.081 -0.023,-0.126 0.162,-0.008 0.298,-0.068 0.41,-0.179 0.111,-0.112 0.167,-0.244 0.167,-0.398 0,-0.039 -0.008,-0.081 -0.023,-0.127 0.191,0 0.346,-0.081 0.461,-0.242 0.023,0.146 0.092,0.269 0.207,0.369 -0.138,0.115 -0.207,0.265 -0.207,0.449 0,0.177 0.069,0.324 0.207,0.439 -0.138,0.122 -0.207,0.273 -0.207,0.449 0,0.177 0.069,0.327 0.207,0.45 -0.138,0.115 -0.207,0.265 -0.207,0.449 0,0.177 0.069,0.323 0.207,0.439 -0.138,0.115 -0.207,0.265 -0.207,0.449 0,0.177 0.069,0.323 0.207,0.438 -0.138,0.123 -0.207,0.272 -0.207,0.45 0,0.176 0.069,0.323 0.207,0.438 -0.138,0.123 -0.207,0.276 -0.207,0.461 0,0.154 0.057,0.288 0.173,0.404 0.115,0.115 0.249,0.172 0.403,0.172 0.161,0 0.298,-0.057 0.41,-0.172 0.111,-0.116 0.167,-0.25 0.167,-0.404 0,-0.185 -0.07,-0.338 -0.208,-0.461 0.138,-0.115 0.208,-0.262 0.208,-0.438 0,-0.178 -0.07,-0.327 -0.208,-0.45 0.138,-0.115 0.208,-0.261 0.208,-0.438 0,-0.184 -0.07,-0.334 -0.208,-0.449 0.138,-0.116 0.208,-0.262 0.208,-0.439 0,-0.184 -0.07,-0.334 -0.208,-0.449 0.138,-0.123 0.208,-0.273 0.208,-0.45 0,-0.176 -0.07,-0.327 -0.208,-0.449 0.138,-0.115 0.208,-0.262 0.208,-0.439 0,-0.092 -0.022,-0.177 -0.064,-0.253 -0.042,-0.077 -0.094,-0.143 -0.155,-0.196 0.061,-0.054 0.113,-0.119 0.155,-0.196 0.042,-0.077 0.064,-0.162 0.064,-0.254 0,-0.092 -0.022,-0.177 -0.064,-0.253 -0.042,-0.078 -0.094,-0.143 -0.155,-0.196 0.107,-0.108 0.161,-0.239 0.161,-0.393 0,-0.131 -0.042,-0.249 -0.127,-0.357 0.131,-0.115 0.196,-0.257 0.196,-0.427 0,-0.153 -0.058,-0.287 -0.173,-0.403 -0.115,-0.115 -0.254,-0.173 -0.415,-0.173 -0.154,0 -0.288,0.058 -0.403,0.173 -0.116,0.116 -0.173,0.25 -0.173,0.403 0,0.062 0.003,0.108 0.011,0.139 -0.146,0.015 -0.267,0.075 -0.363,0.179 -0.096,0.104 -0.144,0.228 -0.144,0.374 0,0.046 0.004,0.081 0.012,0.104 -0.154,0.007 -0.285,0.065 -0.393,0.173 -0.107,0.107 -0.161,0.242 -0.161,0.404 0,0.053 0.004,0.095 0.012,0.126 -0.154,0 -0.288,0.058 -0.404,0.173 -0.115,0.116 -0.173,0.25 -0.173,0.404 0,0.053 0.004,0.096 0.012,0.126 -0.154,0.008 -0.285,0.068 -0.392,0.179 -0.108,0.111 -0.162,0.244 -0.162,0.398 0,0.061 0.004,0.107 0.012,0.139 -0.154,0 -0.286,0.055 -0.398,0.167 -0.111,0.111 -0.167,0.247 -0.167,0.408 0,0.062 0.004,0.109 0.011,0.139 -0.153,0 -0.286,0.056 -0.397,0.167 -0.112,0.112 -0.167,0.248 -0.167,0.41 0,0.053 0.004,0.096 0.011,0.127 -0.154,0.007 -0.284,0.067 -0.392,0.178 -0.108,0.112 -0.161,0.244 -0.161,0.398 0,0.054 0.003,0.096 0.011,0.126 -0.192,0 -0.346,0.078 -0.461,0.231 -0.008,-0.146 -0.077,-0.268 -0.208,-0.368 0.062,-0.054 0.114,-0.12 0.156,-0.197 0.042,-0.076 0.064,-0.157 0.064,-0.242 0,-0.092 -0.022,-0.176 -0.064,-0.253 -0.042,-0.077 -0.094,-0.143 -0.156,-0.196 0.062,-0.054 0.114,-0.12 0.156,-0.197 0.042,-0.076 0.064,-0.157 0.064,-0.241 0,-0.185 -0.073,-0.338 -0.22,-0.461 0.062,-0.055 0.114,-0.12 0.156,-0.196 0.042,-0.078 0.064,-0.158 0.064,-0.243 0,-0.084 -0.022,-0.165 -0.064,-0.242 -0.042,-0.076 -0.094,-0.146 -0.156,-0.208 0.062,-0.053 0.114,-0.118 0.156,-0.195 0.042,-0.078 0.064,-0.158 0.064,-0.242 0,-0.092 -0.022,-0.177 -0.064,-0.254 -0.042,-0.077 -0.094,-0.143 -0.156,-0.196 0.062,-0.054 0.114,-0.119 0.156,-0.196 0.042,-0.077 0.064,-0.157 0.064,-0.242 0,-0.185 -0.073,-0.338 -0.22,-0.462 0.062,-0.054 0.114,-0.119 0.156,-0.195 0.042,-0.078 0.064,-0.158 0.064,-0.243 0,-0.153 -0.058,-0.287 -0.173,-0.403 -0.116,-0.115 -0.254,-0.173 -0.415,-0.173 -0.154,0 -0.289,0.058 -0.404,0.173 -0.115,0.116 -0.173,0.25 -0.173,0.403 0,0.177 0.069,0.323 0.208,0.438 -0.139,0.124 -0.208,0.277 -0.208,0.462 0,0.176 0.069,0.323 0.208,0.438 -0.139,0.115 -0.208,0.265 -0.208,0.45 0,0.176 0.069,0.322 0.208,0.437 -0.139,0.123 -0.208,0.273 -0.208,0.45 0,0.177 0.069,0.323 0.208,0.439 -0.139,0.123 -0.208,0.276 -0.208,0.461 0,0.176 0.069,0.322 0.208,0.438 -0.139,0.115 -0.208,0.265 -0.208,0.449 0,0.177 0.069,0.323 0.208,0.439 -0.139,0.115 -0.208,0.265 -0.208,0.449 0,0.177 0.065,0.319 0.196,0.427 -0.131,0.115 -0.196,0.257 -0.196,0.426 m -4.116,-5.211 c 0.016,0 0.035,-0.002 0.058,-0.006 0.023,-0.004 0.042,-0.006 0.058,-0.006 0.023,0.131 0.086,0.243 0.19,0.335 0.104,0.093 0.225,0.142 0.363,0.15 v 0.058 c 0,0.13 0.038,0.245 0.115,0.345 0.077,0.1 0.177,0.169 0.3,0.208 -0.015,0.031 -0.023,0.061 -0.023,0.092 v 0.104 c 0,0.23 0.096,0.396 0.288,0.496 -0.061,0.1 -0.092,0.207 -0.092,0.322 0,0.162 0.058,0.3 0.173,0.416 -0.115,0.115 -0.173,0.253 -0.173,0.414 0,0.108 0.031,0.212 0.092,0.312 -0.084,0.054 -0.154,0.124 -0.207,0.213 -0.054,0.088 -0.081,0.186 -0.081,0.294 0,0.038 0.002,0.071 0.006,0.098 0.004,0.027 0.009,0.055 0.017,0.086 -0.123,0.039 -0.225,0.108 -0.305,0.208 -0.081,0.1 -0.122,0.219 -0.122,0.358 v 0.046 c -0.138,0.007 -0.259,0.055 -0.363,0.144 -0.103,0.088 -0.167,0.201 -0.19,0.34 -0.023,-0.008 -0.061,-0.012 -0.115,-0.012 -0.123,0 -0.233,0.033 -0.329,0.098 -0.096,0.065 -0.163,0.152 -0.201,0.26 -0.07,-0.039 -0.154,-0.058 -0.254,-0.058 -0.208,0 -0.365,0.077 -0.473,0.231 -0.1,-0.085 -0.219,-0.127 -0.357,-0.127 -0.146,0 -0.269,0.042 -0.369,0.127 -0.115,-0.154 -0.269,-0.231 -0.461,-0.231 -0.085,0 -0.173,0.019 -0.266,0.058 -0.038,-0.108 -0.105,-0.195 -0.201,-0.26 -0.096,-0.065 -0.206,-0.098 -0.329,-0.098 -0.054,0 -0.092,0.004 -0.115,0.012 -0.023,-0.139 -0.086,-0.252 -0.19,-0.34 -0.104,-0.089 -0.225,-0.137 -0.364,-0.144 V 2.295 c 0,-0.139 -0.04,-0.257 -0.121,-0.352 -0.08,-0.097 -0.182,-0.164 -0.305,-0.202 0.023,-0.062 0.035,-0.127 0.035,-0.196 0,-0.239 -0.1,-0.408 -0.3,-0.507 0.061,-0.1 0.092,-0.204 0.092,-0.312 0,-0.169 -0.062,-0.307 -0.184,-0.414 0.122,-0.108 0.184,-0.247 0.184,-0.416 0,-0.107 -0.031,-0.211 -0.092,-0.311 0.084,-0.054 0.156,-0.125 0.213,-0.213 0.058,-0.089 0.087,-0.186 0.087,-0.294 0,-0.077 -0.012,-0.143 -0.035,-0.196 0.123,-0.039 0.223,-0.108 0.299,-0.208 0.077,-0.1 0.116,-0.215 0.116,-0.345 v -0.058 c 0.138,-0.008 0.26,-0.057 0.363,-0.15 0.104,-0.092 0.164,-0.204 0.179,-0.335 0.023,0 0.044,0.002 0.063,0.006 0.019,0.004 0.041,0.006 0.064,0.006 0.123,0 0.232,-0.033 0.328,-0.098 0.096,-0.065 0.164,-0.152 0.202,-0.259 0.092,0.038 0.177,0.057 0.254,0.057 0.099,0 0.19,-0.023 0.27,-0.069 0.081,-0.046 0.149,-0.103 0.202,-0.173 0.116,0.092 0.243,0.138 0.381,0.138 0.13,0 0.253,-0.046 0.369,-0.138 0.053,0.07 0.121,0.127 0.201,0.173 0.081,0.046 0.172,0.069 0.271,0.069 0.077,0 0.162,-0.019 0.254,-0.057 0.039,0.107 0.106,0.194 0.202,0.259 0.096,0.065 0.205,0.098 0.328,0.098 m -2.455,6.468 c 0.138,0 0.257,-0.042 0.357,-0.127 0.115,0.154 0.273,0.23 0.473,0.23 0.192,0 0.346,-0.076 0.461,-0.23 0.1,0.085 0.223,0.127 0.369,0.127 0.123,0 0.232,-0.033 0.329,-0.098 0.095,-0.066 0.163,-0.152 0.201,-0.259 0.092,0.038 0.177,0.057 0.254,0.057 0.146,0 0.271,-0.046 0.374,-0.138 0.104,-0.092 0.168,-0.208 0.191,-0.346 0.023,0 0.044,0.002 0.063,0.006 0.019,0.003 0.04,0.005 0.063,0.005 0.162,0 0.298,-0.055 0.41,-0.166 0.111,-0.112 0.167,-0.248 0.167,-0.41 V 2.871 c 0.154,-0.008 0.286,-0.067 0.398,-0.179 0.111,-0.111 0.167,-0.244 0.167,-0.397 0,-0.078 -0.012,-0.143 -0.035,-0.197 0.123,-0.038 0.225,-0.107 0.306,-0.207 0.081,-0.1 0.121,-0.215 0.121,-0.346 0,-0.108 -0.031,-0.211 -0.092,-0.311 0.085,-0.054 0.155,-0.125 0.213,-0.214 0.058,-0.088 0.086,-0.186 0.086,-0.294 0,-0.177 -0.061,-0.318 -0.184,-0.427 0.054,-0.053 0.098,-0.113 0.132,-0.177 0.035,-0.066 0.052,-0.142 0.052,-0.226 0,-0.107 -0.028,-0.206 -0.086,-0.294 -0.058,-0.088 -0.128,-0.159 -0.213,-0.213 0.061,-0.1 0.092,-0.203 0.092,-0.311 0,-0.139 -0.04,-0.256 -0.121,-0.352 -0.081,-0.096 -0.183,-0.163 -0.306,-0.202 0.023,-0.061 0.035,-0.126 0.035,-0.195 0,-0.155 -0.052,-0.287 -0.156,-0.399 -0.104,-0.111 -0.232,-0.171 -0.386,-0.179 v -0.056 c 0,-0.154 -0.057,-0.289 -0.173,-0.404 -0.115,-0.116 -0.254,-0.173 -0.415,-0.173 -0.054,0 -0.092,0.004 -0.115,0.011 -0.023,-0.138 -0.088,-0.253 -0.196,-0.345 -0.108,-0.093 -0.235,-0.139 -0.381,-0.139 -0.077,0 -0.161,0.019 -0.253,0.058 -0.039,-0.108 -0.106,-0.194 -0.202,-0.259 -0.096,-0.066 -0.206,-0.099 -0.329,-0.099 -0.146,0 -0.272,0.042 -0.38,0.127 -0.115,-0.154 -0.269,-0.23 -0.461,-0.23 -0.2,0 -0.358,0.08 -0.473,0.242 -0.108,-0.093 -0.234,-0.139 -0.38,-0.139 -0.123,0 -0.233,0.031 -0.329,0.093 -0.096,0.061 -0.163,0.145 -0.202,0.253 -0.069,-0.031 -0.154,-0.046 -0.253,-0.046 -0.147,0 -0.274,0.046 -0.381,0.139 -0.107,0.092 -0.173,0.207 -0.196,0.345 -0.023,-0.007 -0.061,-0.011 -0.115,-0.011 -0.161,0 -0.298,0.057 -0.41,0.173 -0.111,0.115 -0.167,0.25 -0.167,0.404 v 0.056 c -0.153,0.008 -0.284,0.066 -0.391,0.174 -0.108,0.107 -0.162,0.242 -0.162,0.404 0,0.061 0.012,0.126 0.035,0.195 -0.123,0.039 -0.225,0.108 -0.306,0.208 -0.081,0.1 -0.121,0.215 -0.121,0.346 0,0.108 0.031,0.211 0.093,0.311 -0.085,0.054 -0.154,0.125 -0.208,0.213 -0.054,0.088 -0.081,0.187 -0.081,0.294 0,0.162 0.058,0.3 0.173,0.416 -0.115,0.115 -0.173,0.253 -0.173,0.414 0,0.108 0.027,0.208 0.081,0.3 0.054,0.092 0.123,0.165 0.208,0.219 -0.055,0.093 -0.082,0.192 -0.082,0.3 0,0.131 0.039,0.246 0.116,0.346 0.077,0.1 0.177,0.169 0.3,0.207 -0.016,0.031 -0.023,0.062 -0.023,0.093 v 0.104 c 0,0.153 0.053,0.286 0.161,0.397 0.107,0.112 0.238,0.171 0.392,0.179 v 0.046 c 0,0.162 0.058,0.298 0.173,0.41 0.115,0.111 0.25,0.166 0.403,0.166 0.016,0 0.035,-0.002 0.058,-0.005 0.023,-0.004 0.042,-0.006 0.058,-0.006 0.023,0.138 0.088,0.254 0.196,0.346 0.107,0.092 0.234,0.138 0.38,0.138 0.093,0 0.177,-0.019 0.254,-0.057 0.046,0.107 0.115,0.193 0.207,0.259 0.093,0.065 0.204,0.098 0.335,0.098 m -8.105,0 c 0.138,0 0.261,-0.042 0.368,-0.127 0.116,0.154 0.273,0.23 0.473,0.23 0.193,0 0.346,-0.076 0.461,-0.23 0.108,0.085 0.231,0.127 0.369,0.127 0.115,0 0.221,-0.033 0.318,-0.098 0.096,-0.066 0.167,-0.152 0.213,-0.259 0.076,0.038 0.161,0.057 0.253,0.057 0.146,0 0.271,-0.046 0.375,-0.138 0.104,-0.092 0.167,-0.208 0.19,-0.346 0.023,0 0.044,0.002 0.064,0.006 0.019,0.003 0.04,0.005 0.063,0.005 0.161,0 0.298,-0.055 0.409,-0.166 0.112,-0.112 0.168,-0.248 0.168,-0.41 0,-0.161 -0.056,-0.298 -0.168,-0.409 -0.111,-0.112 -0.248,-0.167 -0.409,-0.167 -0.146,0 -0.273,0.046 -0.38,0.138 -0.108,0.092 -0.173,0.207 -0.196,0.346 -0.023,-0.008 -0.062,-0.012 -0.116,-0.012 -0.123,0 -0.232,0.033 -0.328,0.098 -0.097,0.065 -0.167,0.152 -0.214,0.26 -0.061,-0.039 -0.142,-0.058 -0.242,-0.058 -0.099,0 -0.188,0.021 -0.264,0.063 -0.078,0.042 -0.147,0.098 -0.208,0.168 -0.1,-0.085 -0.219,-0.127 -0.358,-0.127 -0.146,0 -0.273,0.042 -0.38,0.127 -0.116,-0.154 -0.269,-0.231 -0.461,-0.231 -0.1,0 -0.185,0.019 -0.254,0.058 -0.039,-0.108 -0.106,-0.195 -0.202,-0.26 -0.096,-0.065 -0.205,-0.098 -0.328,-0.098 -0.054,0 -0.096,0.004 -0.127,0.012 -0.016,-0.139 -0.075,-0.252 -0.179,-0.34 -0.104,-0.089 -0.225,-0.137 -0.363,-0.144 V 2.295 c 0,-0.139 -0.04,-0.258 -0.121,-0.358 -0.081,-0.1 -0.183,-0.165 -0.306,-0.196 0.023,-0.069 0.035,-0.134 0.035,-0.196 0,-0.108 -0.029,-0.206 -0.086,-0.294 -0.058,-0.089 -0.129,-0.159 -0.214,-0.213 0.062,-0.1 0.093,-0.204 0.093,-0.312 0,-0.169 -0.062,-0.307 -0.185,-0.414 0.123,-0.108 0.185,-0.247 0.185,-0.416 0,-0.115 -0.031,-0.222 -0.093,-0.322 0.192,-0.1 0.288,-0.266 0.288,-0.496 0,-0.077 -0.011,-0.143 -0.034,-0.196 0.123,-0.039 0.225,-0.108 0.306,-0.208 0.08,-0.1 0.121,-0.215 0.121,-0.345 v -0.058 c 0.138,-0.008 0.259,-0.057 0.363,-0.15 0.104,-0.092 0.163,-0.204 0.178,-0.335 0.023,0 0.044,0.002 0.064,0.006 0.019,0.004 0.04,0.006 0.063,0.006 0.123,0 0.233,-0.033 0.329,-0.098 0.096,-0.065 0.163,-0.152 0.201,-0.259 0.093,0.038 0.177,0.057 0.254,0.057 0.2,0 0.357,-0.081 0.473,-0.242 0.115,0.092 0.242,0.138 0.38,0.138 0.131,0 0.254,-0.046 0.369,-0.138 0.054,0.07 0.121,0.127 0.202,0.173 0.081,0.046 0.171,0.069 0.271,0.069 0.085,0 0.165,-0.019 0.242,-0.057 0.046,0.107 0.117,0.194 0.213,0.259 0.096,0.065 0.206,0.098 0.329,0.098 0.015,0 0.034,-0.002 0.058,-0.006 0.023,-0.004 0.042,-0.006 0.057,-0.006 0.023,0.139 0.088,0.254 0.196,0.346 0.108,0.093 0.235,0.139 0.381,0.139 0.161,0 0.297,-0.056 0.409,-0.167 0.112,-0.112 0.167,-0.248 0.167,-0.409 0,-0.154 -0.055,-0.289 -0.167,-0.404 -0.112,-0.116 -0.248,-0.173 -0.409,-0.173 -0.054,0 -0.096,0.004 -0.127,0.011 -0.023,-0.138 -0.086,-0.253 -0.19,-0.345 -0.104,-0.093 -0.229,-0.139 -0.375,-0.139 -0.1,0 -0.185,0.015 -0.254,0.046 -0.038,-0.108 -0.106,-0.192 -0.201,-0.253 -0.097,-0.062 -0.206,-0.093 -0.329,-0.093 -0.146,0 -0.273,0.042 -0.381,0.127 -0.115,-0.154 -0.268,-0.23 -0.461,-0.23 -0.2,0 -0.361,0.08 -0.484,0.242 -0.092,-0.093 -0.215,-0.139 -0.369,-0.139 -0.123,0 -0.233,0.031 -0.328,0.093 -0.096,0.061 -0.167,0.145 -0.214,0.253 -0.061,-0.031 -0.142,-0.046 -0.242,-0.046 -0.146,0 -0.273,0.046 -0.38,0.139 -0.108,0.092 -0.173,0.207 -0.196,0.345 -0.024,-0.007 -0.062,-0.011 -0.116,-0.011 -0.161,0 -0.298,0.057 -0.409,0.173 -0.111,0.115 -0.167,0.25 -0.167,0.404 v 0.056 c -0.154,0.008 -0.284,0.066 -0.392,0.174 -0.108,0.107 -0.162,0.242 -0.162,0.404 v 0.103 c 0,0.031 0.008,0.062 0.024,0.092 -0.123,0.039 -0.223,0.108 -0.3,0.208 -0.077,0.1 -0.115,0.215 -0.115,0.346 0,0.108 0.03,0.211 0.092,0.311 -0.085,0.054 -0.154,0.125 -0.208,0.213 -0.054,0.088 -0.08,0.187 -0.08,0.294 0,0.162 0.057,0.3 0.172,0.416 -0.115,0.115 -0.172,0.253 -0.172,0.414 0,0.108 0.026,0.206 0.08,0.294 0.054,0.089 0.123,0.16 0.208,0.214 -0.062,0.1 -0.092,0.203 -0.092,0.311 0,0.131 0.04,0.246 0.121,0.346 0.08,0.1 0.182,0.169 0.305,0.207 -0.015,0.031 -0.023,0.062 -0.023,0.093 v 0.104 c 0,0.153 0.054,0.286 0.161,0.397 0.108,0.112 0.239,0.171 0.393,0.179 v 0.046 c 0,0.162 0.057,0.298 0.172,0.41 0.116,0.111 0.25,0.166 0.404,0.166 0.015,0 0.035,-0.002 0.058,-0.005 0.022,-0.004 0.042,-0.006 0.057,-0.006 0.023,0.138 0.088,0.254 0.196,0.346 0.108,0.092 0.235,0.138 0.381,0.138 0.077,0 0.161,-0.019 0.253,-0.057 0.039,0.107 0.106,0.193 0.202,0.259 0.096,0.065 0.206,0.098 0.329,0.098"
             style="fill:#00abad;fill-opacity:1;fill-rule:nonzero;stroke:none"
             id="path845"
             inkscape:connector-curvature="0" />
        </g>
        <g
           id="g847"
           transform="translate(424.9143,947.3091)">
          <path
             d="m 0,0 h -8.173 l -0.013,20.833 c 0,0.897 -0.717,1.598 -1.629,1.598 -0.897,0 -1.598,-0.701 -1.598,-1.598 l -10e-4,-22.391 c 0,-0.88 0.752,-1.621 1.624,-1.621 h 9.792 c 0.854,0 1.576,0.741 1.576,1.621 C 1.578,-0.684 0.884,0 0,0 m 45.875,20.894 c 0,0.862 -0.701,1.537 -1.594,1.537 -0.6,0 -1.129,-0.308 -1.416,-0.829 L 38.702,13.672 37.245,10.837 36.7,9.812 30.428,21.613 c -0.242,0.408 -0.815,0.818 -1.443,0.818 -0.777,0 -1.582,-0.565 -1.582,-1.51 0,-0.295 0.083,-0.571 0.246,-0.837 L 35.076,6.241 v -7.799 c 0,-0.91 0.694,-1.621 1.581,-1.621 0.89,0 1.614,0.727 1.614,1.621 v 7.731 l 7.407,13.934 c 0.126,0.25 0.197,0.529 0.197,0.787 M -27.352,8.73 h -4.372 V -0.079 L -27.384,0 c 2.724,0.05 4.225,1.671 4.225,4.565 0,2.609 -1.568,4.165 -4.193,4.165 m -0.564,3.217 c 2.232,0 3.562,1.348 3.562,3.609 -0.004,2.346 -1.35,3.691 -3.695,3.691 h -3.675 v -7.374 z m 8.011,-7.382 c 0,-4.704 -2.934,-7.744 -7.474,-7.744 h -5.95 c -0.883,0 -1.6,0.718 -1.6,1.602 v 22.41 c 0,0.885 0.717,1.606 1.6,1.606 h 5.28 c 4.232,0 6.966,-2.701 6.966,-6.883 0,-1.865 -0.67,-3.591 -1.841,-4.737 -0.081,-0.074 -0.154,-0.137 -0.222,-0.194 0.072,-0.035 0.139,-0.077 0.201,-0.12 2.016,-1.367 3.04,-3.366 3.04,-5.94 m 40.829,16.268 c 0,0.87 -0.726,1.606 -1.585,1.606 H 9.55 c -0.871,0 -1.607,-0.736 -1.607,-1.606 V -1.558 c 0,-0.88 0.736,-1.621 1.607,-1.621 h 9.789 c 0.873,0 1.585,0.727 1.585,1.623 C 20.919,-0.698 20.206,0 19.334,0 h -8.201 v 8.663 l 6.784,-0.004 c 0.908,0.005 1.593,0.699 1.593,1.615 0,0.9 -0.701,1.605 -1.596,1.605 h -6.781 l 0.001,7.368 h 8.205 c 0.873,0 1.585,0.712 1.585,1.586 m -93.464,0 c 0,0.87 -0.726,1.606 -1.585,1.606 h -9.788 c -0.872,0 -1.608,-0.736 -1.608,-1.606 V -1.558 c 0,-0.88 0.736,-1.621 1.608,-1.621 h 9.788 c 0.874,0 1.585,0.727 1.585,1.623 C -72.544,-0.698 -73.257,0 -74.129,0 h -8.201 v 8.663 l 6.783,-0.004 c 0.908,0.005 1.593,0.699 1.593,1.615 0,0.9 -0.7,1.605 -1.596,1.605 h -6.78 v 7.368 h 8.205 c 0.874,0 1.585,0.712 1.585,1.586 m 26.168,1.606 c -0.693,0 -1.252,-0.385 -1.528,-1.048 l -4.356,-9.22 -1.461,-3.156 -0.667,-1.399 -6.643,13.757 c -0.298,0.678 -0.856,1.066 -1.532,1.066 -0.892,0 -1.617,-0.721 -1.617,-1.606 V -1.558 c 0,-0.894 0.725,-1.621 1.617,-1.621 0.888,0 1.61,0.727 1.61,1.622 v 15.475 l 5.003,-10.521 c 0.318,-0.629 0.871,-0.992 1.516,-0.992 0.362,0 1.034,0.13 1.483,1.001 l 3.004,6.343 1.342,2.879 0.619,1.29 V -1.558 c 0,-0.894 0.723,-1.621 1.61,-1.621 0.888,0 1.61,0.727 1.61,1.621 v 22.391 c 0,0.885 -0.722,1.606 -1.61,1.606 m -46.402,-1.545 c 0,-0.166 -0.03,-0.347 -0.098,-0.587 l -6.816,-22.663 c -0.174,-0.75 -0.763,-1.205 -1.57,-1.205 -0.691,0 -1.253,0.408 -1.541,1.121 l -5.7,17.975 -0.916,-2.921 -1.469,-4.814 -3.145,-10.158 c -0.15,-0.575 -0.716,-1.203 -1.598,-1.203 -0.748,0 -1.288,0.401 -1.564,1.159 l -6.864,22.613 -0.061,0.304 c -0.023,0.099 -0.044,0.205 -0.037,0.338 -0.002,0.399 0.16,0.793 0.456,1.096 0.306,0.306 0.74,0.49 1.163,0.49 0.771,0 1.423,-0.495 1.589,-1.205 l 5.371,-17.769 0.883,2.789 1.461,4.781 3.18,10.213 c 0.284,0.77 0.849,1.191 1.594,1.191 0.918,0 1.424,-0.634 1.591,-1.227 l 5.631,-17.745 0.849,2.824 1.319,4.537 3.102,10.465 c 0.244,0.7 0.865,1.146 1.587,1.146 0.928,0 1.603,-0.65 1.603,-1.545"
             style="fill:#ffffff;fill-opacity:1;fill-rule:nonzero;stroke:none"
             id="path849"
             inkscape:connector-curvature="0" />
        </g>
        <g
           id="g851"
           transform="translate(499.3671,940.0305)">
          <path
             d="m 0,0 c 0.271,-0.404 0.734,-0.671 1.26,-0.671 0.604,0 1.124,0.356 1.367,0.872 0.246,-0.516 0.763,-0.872 1.368,-0.872 0.607,0 1.125,0.356 1.367,0.872 0.246,-0.516 0.764,-0.872 1.371,-0.872 0.837,0 1.517,0.679 1.517,1.518 0,0.836 -0.68,1.518 -1.517,1.518 C 6.126,2.365 5.608,2.005 5.362,1.491 5.12,2.005 4.602,2.365 3.995,2.365 3.39,2.365 2.873,2.005 2.627,1.491 2.384,2.005 1.864,2.365 1.26,2.365 0.734,2.365 0.271,2.097 0,1.693 c -0.272,0.404 -0.736,0.672 -1.259,0.672 -0.837,0 -1.517,-0.682 -1.517,-1.518 0,-0.513 0.256,-0.965 0.644,-1.24 -0.388,-0.274 -0.644,-0.725 -0.644,-1.238 0,-0.513 0.256,-0.967 0.647,-1.238 -0.391,-0.277 -0.647,-0.729 -0.647,-1.242 0,-0.512 0.256,-0.965 0.644,-1.238 -0.388,-0.276 -0.644,-0.726 -0.644,-1.239 0,-0.514 0.256,-0.963 0.644,-1.24 -0.388,-0.273 -0.644,-0.725 -0.644,-1.236 0,-0.514 0.256,-0.966 0.644,-1.239 -0.388,-0.276 -0.644,-0.726 -0.644,-1.238 0,-0.515 0.256,-0.966 0.644,-1.242 -0.388,-0.274 -0.644,-0.725 -0.644,-1.238 0,-0.837 0.68,-1.518 1.517,-1.518 0.523,0 0.987,0.267 1.259,0.671 0.271,-0.404 0.734,-0.671 1.26,-0.671 0.604,0 1.124,0.357 1.367,0.873 0.246,-0.516 0.763,-0.873 1.368,-0.873 0.607,0 1.125,0.357 1.367,0.873 0.246,-0.516 0.764,-0.873 1.371,-0.873 0.837,0 1.517,0.681 1.517,1.518 0,0.836 -0.68,1.518 -1.517,1.518 -0.607,0 -1.125,-0.359 -1.371,-0.874 -0.242,0.515 -0.76,0.874 -1.367,0.874 -0.605,0 -1.122,-0.359 -1.368,-0.874 -0.243,0.515 -0.763,0.874 -1.367,0.874 -0.526,0 -0.989,-0.266 -1.26,-0.671 -0.105,0.154 -0.237,0.283 -0.387,0.391 0.389,0.276 0.645,0.727 0.645,1.242 0,0.512 -0.256,0.962 -0.645,1.238 0.389,0.273 0.645,0.725 0.645,1.239 0,0.511 -0.256,0.963 -0.645,1.236 0.12,0.087 0.223,0.191 0.316,0.307 0.277,-0.345 0.697,-0.568 1.174,-0.568 0.55,0 1.021,0.292 1.29,0.727 0.264,-0.435 0.743,-0.727 1.289,-0.727 0.547,0 1.022,0.292 1.29,0.727 0.266,-0.435 0.742,-0.727 1.289,-0.727 0.839,0 1.518,0.678 1.518,1.516 0,0.838 -0.679,1.514 -1.518,1.514 -0.547,0 -1.023,-0.29 -1.289,-0.723 -0.268,0.433 -0.743,0.723 -1.29,0.723 -0.546,0 -1.025,-0.29 -1.289,-0.723 -0.269,0.433 -0.74,0.723 -1.29,0.723 -0.485,0 -0.91,-0.226 -1.186,-0.578 -0.089,0.11 -0.189,0.204 -0.304,0.288 0.389,0.273 0.645,0.726 0.645,1.238 0,0.513 -0.256,0.965 -0.645,1.242 0.389,0.271 0.645,0.725 0.645,1.238 0,0.513 -0.256,0.964 -0.645,1.238 0.15,0.107 0.282,0.24 0.387,0.393 m 6.733,15.581 c -0.607,0 -1.125,-0.359 -1.371,-0.872 -0.242,0.513 -0.76,0.872 -1.367,0.872 -0.605,0 -1.122,-0.359 -1.368,-0.872 -0.243,0.513 -0.763,0.872 -1.367,0.872 -0.526,0 -0.989,-0.269 -1.26,-0.672 -0.105,0.154 -0.237,0.285 -0.387,0.39 0.389,0.277 0.645,0.73 0.645,1.243 0,0.512 -0.256,0.963 -0.645,1.238 0.389,0.275 0.645,0.727 0.645,1.24 0,0.512 -0.256,0.966 -0.645,1.237 0.12,0.085 0.223,0.189 0.316,0.306 0.277,-0.345 0.697,-0.568 1.174,-0.568 0.55,0 1.021,0.291 1.29,0.726 0.264,-0.435 0.743,-0.726 1.289,-0.726 0.547,0 1.022,0.291 1.29,0.726 0.266,-0.435 0.742,-0.726 1.289,-0.726 0.839,0 1.518,0.68 1.518,1.518 0,0.835 -0.679,1.516 -1.518,1.516 -0.547,0 -1.023,-0.295 -1.289,-0.727 -0.268,0.432 -0.743,0.727 -1.29,0.727 -0.546,0 -1.025,-0.295 -1.289,-0.727 -0.269,0.432 -0.74,0.727 -1.29,0.727 -0.485,0 -0.91,-0.232 -1.186,-0.582 -0.089,0.109 -0.189,0.207 -0.304,0.287 0.389,0.277 0.645,0.729 0.645,1.241 0,0.512 -0.256,0.963 -0.645,1.238 0.389,0.276 0.645,0.727 0.645,1.24 0,0.512 -0.256,0.965 -0.645,1.237 0.15,0.108 0.282,0.24 0.387,0.394 0.271,-0.406 0.734,-0.669 1.26,-0.669 0.604,0 1.124,0.356 1.367,0.871 0.246,-0.515 0.763,-0.871 1.368,-0.871 0.607,0 1.125,0.356 1.367,0.87 0.246,-0.514 0.764,-0.87 1.371,-0.87 0.837,0 1.517,0.677 1.517,1.516 0,0.839 -0.68,1.516 -1.517,1.516 -0.607,0 -1.125,-0.358 -1.371,-0.873 -0.242,0.515 -0.76,0.873 -1.367,0.873 -0.605,0 -1.122,-0.358 -1.368,-0.873 -0.243,0.515 -0.763,0.873 -1.367,0.873 -0.526,0 -0.989,-0.266 -1.26,-0.671 -0.272,0.405 -0.736,0.671 -1.259,0.671 -0.837,0 -1.517,-0.677 -1.517,-1.516 0,-0.514 0.256,-0.965 0.644,-1.241 -0.388,-0.272 -0.644,-0.725 -0.644,-1.237 0,-0.513 0.256,-0.964 0.644,-1.24 -0.388,-0.275 -0.644,-0.726 -0.644,-1.238 0,-0.512 0.256,-0.964 0.644,-1.241 -0.388,-0.272 -0.644,-0.724 -0.644,-1.238 0,-0.512 0.256,-0.965 0.644,-1.239 -0.388,-0.271 -0.644,-0.725 -0.644,-1.237 0,-0.513 0.256,-0.965 0.644,-1.24 -0.388,-0.275 -0.644,-0.726 -0.644,-1.238 0,-0.513 0.256,-0.966 0.644,-1.243 -0.388,-0.273 -0.644,-0.723 -0.644,-1.236 0,-0.838 0.68,-1.516 1.517,-1.516 0.523,0 0.987,0.266 1.259,0.669 0.271,-0.403 0.734,-0.669 1.26,-0.669 0.604,0 1.124,0.358 1.367,0.871 0.246,-0.513 0.763,-0.871 1.368,-0.871 0.607,0 1.125,0.358 1.367,0.871 0.246,-0.513 0.764,-0.871 1.371,-0.871 0.837,0 1.517,0.678 1.517,1.516 0,0.839 -0.68,1.518 -1.517,1.518 m 8.937,-8.78 c 3.435,-3.449 5.699,-8.111 5.699,-13.365 0,-10.232 -8.295,-18.524 -18.527,-18.524 -10.227,0 -18.519,8.292 -18.519,18.524 0,5.254 2.262,9.918 5.696,13.365 0.247,0.249 0.419,0.399 0.419,0.654 0,0.241 -0.164,0.401 -0.421,0.653 -3.51,3.37 -5.694,8.111 -5.694,13.362 0,10.233 8.292,18.527 18.519,18.527 10.232,0 18.527,-8.294 18.527,-18.527 0,-5.251 -2.185,-9.992 -5.697,-13.362 h 0.002 C 15.418,7.854 15.254,7.696 15.254,7.455 15.254,7.2 15.426,7.05 15.67,6.801"
             style="fill:#00abad;fill-opacity:1;fill-rule:nonzero;stroke:none"
             id="path853"
             inkscape:connector-curvature="0" />
        </g>
      </g>
    </g>
  </g>
</svg>
